<svg width="24" height="24" viewBox="0 0 24 24" fill="none" xmlns="http://www.w3.org/2000/svg">
<path d="M12 4C7.5888 4 4 7.5888 4 12C4 16.4112 7.5888 20 12 20C16.4112 20 20 16.4112 20 12C20 7.5888 16.4112 4 12 4ZM11.4 7.8C11.4 7.4688 11.6688 7.2 12 7.2C12.3312 7.2 12.6 7.4688 12.6 7.8V13C12.6 13.3312 12.3312 13.6 12 13.6C11.6688 13.6 11.4 13.3312 11.4 13V7.8ZM12 16.8C11.5584 16.8 11.2 16.4416 11.2 16C11.2 15.5584 11.5584 15.2 12 15.2C12.4416 15.2 12.8 15.5584 12.8 16C12.8 16.4416 12.4416 16.8 12 16.8Z" fill="white"/>
</svg>
