<svg width="24" height="24" viewBox="0 0 24 24" fill="none" xmlns="http://www.w3.org/2000/svg">
<path d="M11.9977 2C11.9526 2 11.908 2.00477 11.8579 2.01503C11.8079 2.02529 11.7527 2.0406 11.6977 2.06111C11.6427 2.0765 11.5876 2.10247 11.5326 2.13325C11.3425 2.23071 11.1323 2.38992 10.9122 2.5951C10.8722 2.63101 10.8321 2.66715 10.7921 2.71332C10.7521 2.74923 10.707 2.79026 10.667 2.84156C10.627 2.88259 10.582 2.92852 10.542 2.97981C10.497 3.02598 10.4571 3.07679 10.412 3.12809C10.327 3.23068 10.2421 3.33884 10.1571 3.45169C10.067 3.56453 9.9821 3.68724 9.90206 3.81035C9.81203 3.93346 9.72625 4.0667 9.64121 4.20007C9.55618 4.33344 9.47114 4.4672 9.39111 4.61083C9.38611 4.62109 9.38146 4.62674 9.37646 4.63187C9.29642 4.77036 9.21604 4.91892 9.14101 5.06768C9.06098 5.2113 8.98645 5.35974 8.91142 5.50849C8.66632 6.00092 8.43654 6.53431 8.23145 7.09342C7.64621 8.67331 7.24569 10.4688 7.24569 12.259C7.24569 17.6039 11.3419 21.164 11.517 21.3127L11.8325 21.5792L12.1725 21.5742L12.4783 21.3127C12.6534 21.164 16.7496 17.6039 16.7496 12.259C16.7496 10.4688 16.3491 8.67318 15.7639 7.09843C15.6988 6.91377 15.6288 6.73484 15.5538 6.56044C15.4888 6.40142 15.4245 6.24746 15.3545 6.09357C15.2695 5.89352 15.1789 5.69828 15.0839 5.50849C15.0089 5.35974 14.9343 5.2113 14.8543 5.06768C14.7743 4.91379 14.6941 4.76447 14.6091 4.62085C14.524 4.47722 14.4391 4.33344 14.3541 4.20007C14.2691 4.0667 14.1833 3.93346 14.0932 3.81035C14.0132 3.68724 13.9283 3.56453 13.8383 3.45169C13.7532 3.33884 13.6683 3.23068 13.5833 3.12809C13.5383 3.07679 13.4984 3.02598 13.4533 2.97981C13.4133 2.92852 13.3683 2.88259 13.3283 2.84156C13.2883 2.79026 13.2432 2.74923 13.2032 2.71332C13.1632 2.66715 13.1231 2.63101 13.0831 2.5951C12.863 2.38992 12.6528 2.23071 12.4627 2.13325C12.4077 2.10247 12.3526 2.0765 12.2976 2.06111C12.2426 2.0406 12.1874 2.02529 12.1374 2.01503C12.0873 2.00477 12.0427 2 11.9977 2ZM5.53014 5.50849C5.4251 5.50849 5.31462 5.51879 5.21458 5.54957C5.10454 5.57521 5.00516 5.61649 4.89511 5.66779C4.63001 5.80115 4.33414 6.07778 4.00901 7.22166C3.72889 8.20652 3.47367 9.73555 3.51368 11.3924C3.5537 13.1056 3.89892 14.9515 4.84431 16.5108C6.07982 18.5473 7.83609 19.7272 9.28169 20.394C8.64643 19.5938 7.93133 18.5325 7.35609 17.2552L7.35121 17.2502C6.87601 16.1884 6.49034 14.9772 6.33028 13.6435V13.6385V13.6335C6.27525 13.1873 6.24528 12.7309 6.24528 12.259C6.24528 11.2331 6.37045 10.1455 6.61555 9.05806C6.69058 8.69386 6.78503 8.33524 6.89008 7.97105C7.04014 7.45297 7.21572 6.9399 7.4108 6.43721C7.31076 6.36027 7.2108 6.28348 7.11576 6.2168C6.92568 6.0783 6.75022 5.96461 6.59015 5.86715C6.51012 5.82099 6.43071 5.77482 6.35568 5.73892C6.35068 5.73379 6.34505 5.7289 6.34005 5.7289C6.27002 5.69299 6.19991 5.66238 6.13488 5.63673C6.06986 5.61108 6.00538 5.59112 5.94535 5.57061C5.80029 5.52957 5.6652 5.50849 5.53014 5.50849ZM18.4701 5.50849C18.33 5.50849 18.1903 5.52945 18.0402 5.57561C17.9802 5.591 17.9205 5.61108 17.8604 5.63673C17.7954 5.66238 17.7253 5.69299 17.6553 5.7289C17.3501 5.88278 16.9997 6.11405 16.5845 6.43721C16.7796 6.9399 16.9552 7.45297 17.1052 7.97105C17.2103 8.33524 17.3047 8.69386 17.3798 9.05806C17.6249 10.1455 17.75 11.2331 17.75 12.259C17.75 12.7514 17.7202 13.228 17.6601 13.6896C17.6601 13.6896 17.6553 13.6955 17.6553 13.7006C17.4952 15.0138 17.1144 16.2088 16.6392 17.2552C16.064 18.5325 15.344 19.5938 14.7087 20.394C16.1593 19.7272 17.9155 18.5473 19.151 16.5108C20.1014 14.9464 20.4515 13.1005 20.4865 11.3924C20.5215 9.73042 20.2664 8.20652 19.9863 7.22166C19.6612 6.07778 19.3703 5.80115 19.1002 5.66779C18.9952 5.61649 18.8907 5.57521 18.7856 5.54957C18.6806 5.51879 18.5801 5.50849 18.4701 5.50849ZM1.58809 10.9806C1.30734 10.9729 1.05849 10.9996 0.853408 11.0638C0.428232 11.1971 0.222679 11.4539 0.122637 11.6488C-0.347557 12.5773 0.663095 14.9772 0.988229 15.6953C1.52845 16.8905 2.70382 19.1118 4.49456 20.5583C5.89013 21.6766 7.52624 22 8.93682 22C9.44203 22 9.91664 21.9584 10.3368 21.8968C8.64612 21.3531 5.8101 20.0453 3.99435 17.0549C2.8889 15.2288 2.51827 13.0592 2.51327 11.1048C2.18063 11.0305 1.86883 10.9883 1.58809 10.9806ZM22.4102 10.9806C22.1282 10.9883 21.8147 11.0305 21.482 11.1048C21.477 13.0592 21.1114 15.2288 20.001 17.0549C18.1952 20.03 15.3786 21.3431 13.6829 21.8868C15.3486 22.1227 17.7704 22.0977 19.5262 20.5383C21.7971 18.5275 24.638 13.1467 23.8727 11.6488C23.7776 11.4539 23.567 11.1971 23.1468 11.0638C22.9417 10.9996 22.6921 10.9729 22.4102 10.9806Z" fill="white"/>
</svg>
