<svg width="24" height="24" viewBox="0 0 24 24" fill="none" xmlns="http://www.w3.org/2000/svg">
<g clip-path="url(#clip0_34_6012)">
<path d="M12 0C5.373 0 0 5.373 0 12C0 18.627 5.373 24 12 24C18.627 24 24 18.627 24 12C24 5.373 18.627 0 12 0ZM17.707 17.707C17.316 18.098 16.683 18.098 16.293 17.707L13.293 14.707L14.707 13.293L17.707 16.293C18.098 16.683 18.098 17.317 17.707 17.707ZM17.921 9.92C16.949 10.892 15.617 11.217 14.569 10.845L7.708 17.706C7.317 18.097 6.684 18.097 6.294 17.706C5.903 17.315 5.903 16.682 6.294 16.292L9.586 13L7.304 10.718C5.806 9.22 5.465 6.918 6.465 5.05L12 10.586L13.154 9.432C12.782 8.384 13.107 7.052 14.079 6.08C15.352 4.807 17.243 4.635 18.304 5.696C19.365 6.757 19.193 8.648 17.921 9.92Z" fill="white"/>
</g>
<defs>
<clipPath id="clip0_34_6012">
<rect width="24" height="24" fill="white"/>
</clipPath>
</defs>
</svg>
