<svg width="24" height="24" viewBox="0 0 24 24" fill="none" xmlns="http://www.w3.org/2000/svg">
<path d="M10.2885 1C8.06279 1 5.83688 1.1851 3.6265 1.55707C2.71269 1.71026 1.94789 2.35145 1.63243 3.22827C0.527454 6.29711 0.619419 9.82284 1.83669 12.791C1.17319 13.5281 0 15.0028 0 16.2325C0 19.5798 9.86677 19.6179 10.2868 19.6179C10.3974 19.6179 11.1684 19.6137 12.2374 19.5485C12.0968 18.4262 12.0384 17.3004 12.0247 16.173C11.3844 16.212 10.7754 16.2292 10.2868 16.2292C8.28774 16.2292 4.28617 15.9309 4.28617 15.1168C4.28617 14.829 4.62095 14.4599 4.94584 14.1679C6.72289 14.4066 8.50544 14.5332 10.2885 14.5332C10.8757 14.5332 11.4643 14.4992 12.0515 14.4721C12.1064 13.2483 12.2166 12.026 12.4215 10.8107C12.6813 9.26015 13.7986 7.98659 15.3348 7.48809C16.4929 7.11147 17.6796 6.91945 18.8592 6.91945C19.1352 6.91945 19.4119 6.93135 19.6879 6.95251C19.6159 5.6813 19.3723 4.42077 18.9429 3.22827C18.6266 2.35145 17.8626 1.71026 16.9488 1.55707C14.7388 1.1851 12.5142 1 10.2885 1ZM18.8592 8.61214C17.8597 8.61214 16.8595 8.7736 15.8672 9.09648C14.9397 9.39693 14.2677 10.1608 14.1126 11.0884C13.5862 14.219 13.5862 17.3932 14.1126 20.5238C14.2686 21.4514 14.9397 22.2152 15.8672 22.5157C16.8599 22.8381 17.8579 23 18.8575 23C19.857 23 20.8576 22.8398 21.8494 22.5173C22.777 22.2169 23.4489 21.453 23.6041 20.5254C24.1313 17.3931 24.1321 14.2198 23.6058 11.0884C23.4497 10.1608 22.7761 9.39693 21.8494 9.09648C20.8568 8.7736 19.8586 8.61214 18.8592 8.61214ZM18.8592 18.7666C19.3323 18.7666 19.7164 19.1458 19.7164 19.613C19.7164 20.0802 19.3323 20.4593 18.8592 20.4593C18.386 20.4593 18.0019 20.0802 18.0019 19.613C18.0019 19.1458 18.386 18.7666 18.8592 18.7666Z" fill="white"/>
</svg>
