<svg width="24" height="24" viewBox="0 0 24 24" fill="none" xmlns="http://www.w3.org/2000/svg">
<path d="M11.9689 1.99991C14.9102 1.99091 17.5572 3.25225 19.3927 5.26553C19.5776 5.46791 19.5525 5.7866 19.3478 5.96866L12.0001 12.4999L18.8156 18.5585C19.0316 18.7505 19.0456 19.091 18.8351 19.289C17.0472 20.9677 14.6458 21.9999 12.0001 21.9999C6.29873 21.9999 1.71199 17.2292 2.01379 11.4618C2.28879 6.22385 6.72391 2.01595 11.9689 1.99991ZM17.0001 10.9999C17.8284 11.0001 18.5001 11.6716 18.5001 12.4999C18.5001 13.3282 17.8284 13.9997 17.0001 13.9999C16.1717 13.9999 15.5001 13.3283 15.5001 12.4999C15.5001 11.6715 16.1717 10.9999 17.0001 10.9999ZM21.0001 10.9999C21.8284 11 22.5001 11.6716 22.5001 12.4999C22.5001 13.3283 21.8285 13.9998 21.0001 13.9999C20.1717 13.9999 19.5001 13.3283 19.5001 12.4999C19.5002 11.6715 20.1717 10.9999 21.0001 10.9999Z" fill="white"/>
</svg>
