<svg width="24" height="24" viewBox="0 0 24 24" fill="none" xmlns="http://www.w3.org/2000/svg">
<g clip-path="url(#clip0_34_6031)">
<path d="M22.9053 19.3256L21.1222 3.92035C21.1222 2.95183 20.3051 2.16737 19.2962 2.16737H11.9921H4.68795C3.67907 2.16737 2.86192 2.95183 2.86192 3.92035L1.0788 19.3256C1.05232 19.4457 1.03589 19.5693 1.03589 19.6972C1.03589 20.6658 1.85304 21.4502 2.86192 21.4502H11.9921H21.1222C22.1311 21.4502 22.9482 20.6658 22.9482 19.6972C22.9482 19.5693 22.9318 19.4457 22.9053 19.3256ZM16.5571 6.4692V7.42633C16.5571 9.84282 14.5092 11.8088 11.9921 11.8088C9.47488 11.8088 7.42699 9.84282 7.42699 7.42633V6.4692C6.89653 6.28864 6.51398 5.80657 6.51398 5.2351C6.51398 4.50936 7.12752 3.92035 7.8835 3.92035C8.63947 3.92035 9.25302 4.50936 9.25302 5.2351V7.42633C9.25302 8.87605 10.4819 10.0558 11.9921 10.0558C13.5022 10.0558 14.7311 8.87605 14.7311 7.42633V5.2351C14.7311 4.50936 15.3447 3.92035 16.1006 3.92035C16.8566 3.92035 17.4702 4.50936 17.4702 5.2351C17.4702 5.80657 17.0876 6.28864 16.5571 6.4692Z" fill="white"/>
</g>
<defs>
<clipPath id="clip0_34_6031">
<rect width="24" height="24" fill="white"/>
</clipPath>
</defs>
</svg>
