<svg width="24" height="24" viewBox="0 0 24 24" fill="none" xmlns="http://www.w3.org/2000/svg">
<path d="M12.0001 1C11.7711 1 11.5429 1.06037 11.3419 1.18406L10.2111 1.87238C9.67812 2.19732 9.0656 2.39382 8.44161 2.43799L7.11155 2.53194C6.63856 2.56728 6.22612 2.8602 6.04712 3.29312L5.54322 4.50295C5.30623 5.07331 4.92944 5.5856 4.45145 5.98121L3.43389 6.82484C3.0699 7.12621 2.91074 7.60223 3.02374 8.05576L3.34209 9.32503C3.49209 9.9209 3.49209 10.5535 3.34209 11.1503L3.02374 12.4196C2.91074 12.8731 3.06894 13.3491 3.43194 13.6505L4.44949 14.4941C4.92849 14.8898 5.30523 15.4001 5.54322 15.9705L6.04712 17.1803C6.22612 17.6122 6.63856 17.9071 7.11155 17.9415L8.44161 18.0374C9.0656 18.0815 9.67616 18.2762 10.2092 18.5991L11.3419 19.2894C11.5429 19.4131 11.7721 19.4734 12.0001 19.4734C12.2281 19.4734 12.4573 19.4131 12.6583 19.2894L13.7892 18.6011C14.3222 18.2771 14.9347 18.0815 15.5587 18.0374L16.8887 17.9415C17.3627 17.9071 17.7752 17.6122 17.9531 17.1803L18.457 15.9705C18.694 15.4001 19.0708 14.8898 19.5488 14.4941L20.5683 13.6505C20.9313 13.3491 21.0895 12.8731 20.9765 12.4196L20.6562 11.1503C20.5062 10.5545 20.5062 9.92188 20.6562 9.32503L20.9746 8.05576C21.0876 7.60223 20.9294 7.12621 20.5664 6.82484L19.5508 5.98121C19.0718 5.5856 18.695 5.07331 18.457 4.50295L17.9531 3.29312C17.7742 2.86119 17.3617 2.5663 16.8887 2.53194L15.5587 2.43799C14.9347 2.39382 14.3241 2.19727 13.7911 1.8743L12.6583 1.18406C12.4573 1.06037 12.2291 1 12.0001 1ZM12.0001 6.31099C14.2061 6.31099 16.0001 8.07211 16.0001 10.2377C16.0001 12.4032 14.2061 14.1644 12.0001 14.1644C9.79418 14.1644 8.00021 12.4032 8.00021 10.2377C8.00021 8.07211 9.79418 6.31099 12.0001 6.31099ZM12.0001 8.76517C11.6023 8.76517 11.2208 8.92031 10.9395 9.19646C10.6582 9.47261 10.5002 9.84714 10.5002 10.2377C10.5002 10.6282 10.6582 11.0027 10.9395 11.2789C11.2208 11.555 11.6023 11.7102 12.0001 11.7102C12.398 11.7102 12.7795 11.555 13.0608 11.2789C13.3421 11.0027 13.5001 10.6282 13.5001 10.2377C13.5001 9.84714 13.3421 9.47261 13.0608 9.19646C12.7795 8.92031 12.398 8.76517 12.0001 8.76517ZM1.83626 15.5372L0.367539 16.979C0.0605452 17.2804 -0.0664368 17.7132 0.0335613 18.1275C0.133559 18.5417 0.444819 18.8759 0.855812 19.0094L3.26202 19.7975L4.06474 22.1615C4.20173 22.565 4.54216 22.8696 4.96316 22.9668C5.38215 23.065 5.82802 22.9422 6.13501 22.6409L8.31661 20.4973C8.29761 20.4953 8.27897 20.4868 8.25997 20.4858L6.92796 20.3918C5.49499 20.2878 4.26875 19.41 3.73076 18.1083L3.22881 16.8985C3.14282 16.6923 3.00919 16.5106 2.8382 16.3693L1.83626 15.5372ZM22.166 15.5372L21.1621 16.3674C20.9921 16.5077 20.8565 16.6914 20.7715 16.8965L20.2715 18.1045C19.7315 19.4101 18.5054 20.2849 17.0684 20.3899L15.7383 20.4858C15.7203 20.4868 15.7027 20.4934 15.6837 20.4954L17.8653 22.6389C18.1033 22.8726 18.422 22.9994 18.75 22.9994C18.846 22.9994 18.9421 22.9884 19.0371 22.9668C19.4591 22.8686 19.7995 22.565 19.9355 22.1615L20.7383 19.7975L23.1445 19.0094C23.5555 18.875 23.8677 18.5408 23.9667 18.1275C24.0657 17.7142 23.9407 17.2785 23.6347 16.9771L22.166 15.5372Z" fill="white"/>
</svg>
