<svg width="24" height="24" viewBox="0 0 24 24" fill="none" xmlns="http://www.w3.org/2000/svg">
<path d="M12 0C10.4509 0 9.12723 0.961657 8.57993 2.31671C8.09381 2.02364 7.53093 1.84615 6.92308 1.84615C5.14154 1.84615 3.69231 3.29538 3.69231 5.07692V11.0769V12.9231H2.30769C1.03477 12.9231 0 13.9578 0 15.2308C0 15.8622 0.252447 16.4518 0.712139 16.893L5.28245 21.2867C7.09999 23.0368 9.48554 24 12 24C14.5145 24 16.8991 23.0368 18.7157 21.2867L23.2897 16.893C23.7484 16.4518 24 15.8622 24 15.2308C24 13.9578 22.9652 12.9231 21.6923 12.9231H20.3077V11.0769V5.07692C20.3077 3.29538 18.8585 1.84615 17.0769 1.84615C16.4691 1.84615 15.9062 2.02364 15.4201 2.31671C14.8728 0.961657 13.5491 0 12 0ZM12 1.84615C13.0182 1.84615 13.8462 2.67415 13.8462 3.69231V11.0769H15.6923V5.07692C15.6923 4.31354 16.3135 3.69231 17.0769 3.69231C17.8403 3.69231 18.4615 4.31354 18.4615 5.07692V11.0769V13.8462V14.7692H21.6923C21.9462 14.7692 22.1538 14.9769 22.1538 15.2308C22.1538 15.3988 22.064 15.5117 22.0114 15.5625L17.4375 19.9543C15.9643 21.3722 14.0335 22.1538 12 22.1538C9.96646 22.1538 8.03485 21.3722 6.5607 19.9543L1.99038 15.5625C1.93685 15.5117 1.84615 15.3988 1.84615 15.2308C1.84615 14.9769 2.05385 14.7692 2.30769 14.7692H5.53846V13.8462V11.0769V5.07692C5.53846 4.31354 6.15969 3.69231 6.92308 3.69231C7.68646 3.69231 8.30769 4.31354 8.30769 5.07692V11.0769H10.1538V5.07692V3.69231C10.1538 2.67415 10.9818 1.84615 12 1.84615ZM12 12.9231C8.77385 12.9231 6.70336 15.9741 6.61659 16.1034L6.27584 16.6154L6.61659 17.1274C6.70336 17.2566 8.77385 20.3077 12 20.3077C15.2262 20.3077 17.2966 17.2566 17.3834 17.1274L17.7242 16.6154L17.3834 16.1034C17.2966 15.9741 15.2262 12.9231 12 12.9231ZM12 14.7692C13.5665 14.7692 14.8233 15.9212 15.4381 16.6154C14.8224 17.3095 13.5646 18.4615 12 18.4615C10.4335 18.4615 9.17667 17.3095 8.5619 16.6154C9.17759 15.9212 10.4354 14.7692 12 14.7692ZM12 15.6923C11.7552 15.6923 11.5204 15.7896 11.3473 15.9627C11.1742 16.1358 11.0769 16.3706 11.0769 16.6154C11.0769 16.8602 11.1742 17.095 11.3473 17.2681C11.5204 17.4412 11.7552 17.5385 12 17.5385C12.2448 17.5385 12.4796 17.4412 12.6527 17.2681C12.8258 17.095 12.9231 16.8602 12.9231 16.6154C12.9231 16.3706 12.8258 16.1358 12.6527 15.9627C12.4796 15.7896 12.2448 15.6923 12 15.6923Z" fill="white"/>
</svg>
