<svg width="24" height="24" viewBox="0 0 24 24" fill="none" xmlns="http://www.w3.org/2000/svg">
<path d="M12 0.8C11.7561 0.800016 11.5218 0.89555 11.3474 1.06615L1.16646 9.39323C1.1547 9.40207 1.14315 9.41119 1.13182 9.42057L1.09718 9.44974V9.45156C1.00357 9.53877 0.928892 9.64429 0.877777 9.76157C0.826662 9.87886 0.800205 10.0054 0.800049 10.1333C0.800049 10.3809 0.898382 10.6183 1.07342 10.7933C1.24845 10.9683 1.48585 11.0667 1.73338 11.0667H2.66672V21.3333C2.66672 22.3647 3.50205 23.2 4.53338 23.2H19.4667C20.498 23.2 21.3334 22.3647 21.3334 21.3333V11.0667H22.2667C22.5143 11.0667 22.7516 10.9683 22.9267 10.7933C23.1017 10.6183 23.2 10.3809 23.2 10.1333C23.2001 10.0051 23.1738 9.8782 23.1227 9.76059C23.0716 9.64297 22.9967 9.53716 22.9029 9.44974L22.8883 9.4388C22.8679 9.42025 22.8466 9.40261 22.8245 9.38594L21.3334 8.16641V4.53333C21.3334 4.01813 20.9152 3.6 20.4 3.6H19.4667C18.9515 3.6 18.5334 4.01813 18.5334 4.53333V5.87682L12.6326 1.04974C12.4607 0.889905 12.2348 0.800733 12 0.8ZM14.8 12.9333H18.5334V20.4H14.8V12.9333Z" fill="white"/>
</svg>
