<svg width="24" height="24" viewBox="0 0 24 24" fill="none" xmlns="http://www.w3.org/2000/svg">
<path d="M12 0C5.38247 0 0 5.38247 0 12C0 18.6175 5.38247 24 12 24C18.6175 24 24 18.6175 24 12C24 5.38247 18.6175 0 12 0ZM5.73913 13.5652C4.875 13.5652 4.17391 12.8641 4.17391 12C4.17391 11.1359 4.875 10.4348 5.73913 10.4348C6.60326 10.4348 7.30435 11.1359 7.30435 12C7.30435 12.8641 6.60326 13.5652 5.73913 13.5652ZM12 13.5652C11.1359 13.5652 10.4348 12.8641 10.4348 12C10.4348 11.1359 11.1359 10.4348 12 10.4348C12.8641 10.4348 13.5652 11.1359 13.5652 12C13.5652 12.8641 12.8641 13.5652 12 13.5652ZM18.2609 13.5652C17.3967 13.5652 16.6957 12.8641 16.6957 12C16.6957 11.1359 17.3967 10.4348 18.2609 10.4348C19.125 10.4348 19.8261 11.1359 19.8261 12C19.8261 12.8641 19.125 13.5652 18.2609 13.5652Z" fill="white"/>
</svg>
