<svg width="24" height="24" viewBox="0 0 24 24" fill="none" xmlns="http://www.w3.org/2000/svg">
<path d="M1.34712 14.1776L0.0651138 15.4474C0.0110966 15.5014 -0.0633282 15.6178 0.0975227 15.7258C0.348402 15.8926 5.86535 18.1082 5.86535 18.1082C5.86535 18.1082 8.10766 23.6506 8.27451 23.9015C8.38255 24.0635 8.49898 23.9891 8.553 23.9351L9.83501 22.6653C10.2503 22.2416 10.2143 22.2152 10.1243 21.95C9.93944 21.4003 9.38847 17.993 9.38847 17.993L14.4037 12.9786C14.4037 12.9786 18.9795 22.07 19.198 22.5393C19.3648 22.9005 19.5797 22.8441 19.7405 22.6509C19.8822 22.4817 21.3094 21.1675 21.6408 20.7522C21.9108 20.4125 21.8532 20.1641 21.8304 19.9649C21.8088 19.7644 18.9987 8.38429 18.9987 8.38429L22.948 4.42608C24.5865 2.78783 23.9299 0.953946 23.4989 0.523079C23.068 0.0922128 21.1918 -0.606294 19.5533 1.03196L15.604 4.99017C15.604 4.99017 4.23163 2.44458 4.03237 2.42177C3.83311 2.39897 3.58583 2.34016 3.24492 2.6114C2.82839 2.94145 1.51517 4.36967 1.34592 4.51129C1.15386 4.67212 1.09624 4.88575 1.45755 5.05378C1.9245 5.27101 11.009 9.58328 11.009 9.58328L5.99379 14.5976C5.99379 14.5976 2.61232 14.0732 2.06255 13.8883C1.79726 13.7983 1.77205 13.7623 1.34712 14.1776Z" fill="white"/>
</svg>
