<svg width="27" height="27" viewBox="0 0 27 27" fill="none" xmlns="http://www.w3.org/2000/svg">
<rect width="27" height="27" rx="13.5" fill="#00C531"/>
<mask id="path-2-outside-1_8224_7752" maskUnits="userSpaceOnUse" x="2.79175" y="7.75049" width="19" height="11" fill="black">
<rect fill="white" x="2.79175" y="7.75049" width="19" height="11"/>
<path d="M19.9119 8.75049C20.5425 8.82143 21.0216 9.25295 21.1863 9.86377V9.86279L21.2087 17.0483C21.0521 17.7278 20.5473 18.2005 19.8425 18.2495L8.2771 18.2446C7.26411 18.0593 6.89382 17.195 7.00952 16.23C7.0731 15.6987 7.7573 15.8368 7.75757 16.2661V16.9985L11.8513 13.481L7.75757 9.99951V10.731C7.75757 11.1609 7.07311 11.2995 7.00952 10.7681C6.89232 9.78965 7.27643 8.91632 8.30933 8.75049H19.9119ZM15.8191 13.9976C15.169 14.4028 14.6926 15.3304 13.8005 15.0601C13.335 14.9191 12.9238 14.3199 12.5251 14.0542C12.4824 14.0256 12.4415 13.9871 12.3865 14.0161L8.36304 17.5347L19.8416 17.5337C19.8483 17.5315 19.9115 17.4821 19.8777 17.4624L15.8191 13.9976ZM16.4099 13.5122L20.447 16.9985C20.4572 17.0024 20.4983 16.9193 20.4998 16.9097V10.0884C20.4998 10.0831 20.4575 9.99503 20.447 9.99951L16.4099 13.5122ZM8.99194 13.9731C9.20152 13.9734 9.37085 14.1437 9.37085 14.354C9.37064 14.5642 9.20139 14.7346 8.99194 14.7349H4.17163C3.962 14.7349 3.79196 14.5643 3.79175 14.354C3.79175 14.1435 3.96187 13.9731 4.17163 13.9731H8.99194ZM8.36304 9.46436C8.34858 9.52497 8.38688 9.53566 8.41577 9.57178C8.47493 9.64524 8.66695 9.79942 8.75366 9.87549C10.3283 11.264 12.0304 12.7913 13.6658 14.0894C13.8361 14.2241 14.0241 14.4337 14.2556 14.3218L19.8777 9.53564C19.9128 9.51612 19.8458 9.46436 19.8416 9.46436H8.36304ZM8.99194 12.228C9.20152 12.2282 9.37085 12.3995 9.37085 12.6099C9.37062 12.82 9.20138 12.9905 8.99194 12.9907H5.66577C5.45615 12.9907 5.28611 12.8201 5.28589 12.6099C5.28589 12.3994 5.45601 12.228 5.66577 12.228H8.99194Z"/>
</mask>
<path d="M19.9119 8.75049C20.5425 8.82143 21.0216 9.25295 21.1863 9.86377V9.86279L21.2087 17.0483C21.0521 17.7278 20.5473 18.2005 19.8425 18.2495L8.2771 18.2446C7.26411 18.0593 6.89382 17.195 7.00952 16.23C7.0731 15.6987 7.7573 15.8368 7.75757 16.2661V16.9985L11.8513 13.481L7.75757 9.99951V10.731C7.75757 11.1609 7.07311 11.2995 7.00952 10.7681C6.89232 9.78965 7.27643 8.91632 8.30933 8.75049H19.9119ZM15.8191 13.9976C15.169 14.4028 14.6926 15.3304 13.8005 15.0601C13.335 14.9191 12.9238 14.3199 12.5251 14.0542C12.4824 14.0256 12.4415 13.9871 12.3865 14.0161L8.36304 17.5347L19.8416 17.5337C19.8483 17.5315 19.9115 17.4821 19.8777 17.4624L15.8191 13.9976ZM16.4099 13.5122L20.447 16.9985C20.4572 17.0024 20.4983 16.9193 20.4998 16.9097V10.0884C20.4998 10.0831 20.4575 9.99503 20.447 9.99951L16.4099 13.5122ZM8.99194 13.9731C9.20152 13.9734 9.37085 14.1437 9.37085 14.354C9.37064 14.5642 9.20139 14.7346 8.99194 14.7349H4.17163C3.962 14.7349 3.79196 14.5643 3.79175 14.354C3.79175 14.1435 3.96187 13.9731 4.17163 13.9731H8.99194ZM8.36304 9.46436C8.34858 9.52497 8.38688 9.53566 8.41577 9.57178C8.47493 9.64524 8.66695 9.79942 8.75366 9.87549C10.3283 11.264 12.0304 12.7913 13.6658 14.0894C13.8361 14.2241 14.0241 14.4337 14.2556 14.3218L19.8777 9.53564C19.9128 9.51612 19.8458 9.46436 19.8416 9.46436H8.36304ZM8.99194 12.228C9.20152 12.2282 9.37085 12.3995 9.37085 12.6099C9.37062 12.82 9.20138 12.9905 8.99194 12.9907H5.66577C5.45615 12.9907 5.28611 12.8201 5.28589 12.6099C5.28589 12.3994 5.45601 12.228 5.66577 12.228H8.99194Z" fill="white"/>
<path d="M19.9119 8.75049L19.9296 8.59315L19.9207 8.59215H19.9119V8.75049ZM21.1863 9.86377L21.0334 9.905L21.3446 9.86377H21.1863ZM21.1863 9.86279L21.3446 9.8623L21.0279 9.86279H21.1863ZM21.2087 17.0483L21.363 17.0839L21.3671 17.0661L21.3671 17.0478L21.2087 17.0483ZM19.8425 18.2495L19.8425 18.4082L19.8535 18.4075L19.8425 18.2495ZM8.2771 18.2446L8.24861 18.4004L8.26271 18.403L8.27703 18.403L8.2771 18.2446ZM7.00952 16.23L7.16673 16.2488L7.16673 16.2488L7.00952 16.23ZM7.75757 16.2661H7.9159V16.266L7.75757 16.2661ZM7.75757 16.9985H7.59924V17.3433L7.86076 17.1186L7.75757 16.9985ZM11.8513 13.481L11.9545 13.601L12.095 13.4803L11.9539 13.3603L11.8513 13.481ZM7.75757 9.99951L7.86014 9.8789L7.59924 9.65701V9.99951H7.75757ZM7.00952 10.7681L7.16673 10.7493L7.16673 10.7492L7.00952 10.7681ZM8.30933 8.75049V8.59215H8.2967L8.28423 8.59416L8.30933 8.75049ZM15.8191 13.9976L15.9219 13.8771L15.8337 13.8019L15.7353 13.8632L15.8191 13.9976ZM13.8005 15.0601L13.8465 14.9085L13.8464 14.9085L13.8005 15.0601ZM12.5251 14.0542L12.4371 14.1858L12.4373 14.1859L12.5251 14.0542ZM12.3865 14.0161L12.3126 13.8761L12.2962 13.8847L12.2822 13.8969L12.3865 14.0161ZM8.36304 17.5347L8.25881 17.4155L7.94142 17.693L8.36305 17.693L8.36304 17.5347ZM19.8416 17.5337L19.8416 17.692L19.8661 17.692L19.8895 17.6846L19.8416 17.5337ZM19.8777 17.4624L19.7749 17.5828L19.7857 17.5921L19.7981 17.5993L19.8777 17.4624ZM16.4099 13.5122L16.306 13.3928L16.1682 13.5127L16.3064 13.632L16.4099 13.5122ZM20.447 16.9985L20.3435 17.1184L20.3645 17.1365L20.3903 17.1464L20.447 16.9985ZM20.4998 16.9097L20.6562 16.9341L20.6581 16.9219V16.9097H20.4998ZM20.447 9.99951L20.3849 9.85386L20.3619 9.86366L20.3431 9.88006L20.447 9.99951ZM8.99194 13.9731L8.99211 13.8148H8.99194V13.9731ZM9.37085 14.354L9.52918 14.3542V14.354H9.37085ZM8.99194 14.7349V14.8932H8.99211L8.99194 14.7349ZM3.79175 14.354H3.63341L3.63341 14.3542L3.79175 14.354ZM8.36304 9.46436V9.30602H8.23804L8.20903 9.42761L8.36304 9.46436ZM8.41577 9.57178L8.29213 9.67068L8.29246 9.67109L8.41577 9.57178ZM8.75366 9.87549L8.85838 9.75673L8.85808 9.75646L8.75366 9.87549ZM13.6658 14.0894L13.5673 14.2134L13.5675 14.2135L13.6658 14.0894ZM14.2556 14.3218L14.3245 14.4643L14.3428 14.4555L14.3583 14.4423L14.2556 14.3218ZM19.8777 9.53564L19.8008 9.39726L19.787 9.40489L19.775 9.41508L19.8777 9.53564ZM8.99194 12.228L8.99211 12.0697H8.99194V12.228ZM9.37085 12.6099L9.52918 12.61V12.6099H9.37085ZM8.99194 12.9907V13.1491H8.99211L8.99194 12.9907ZM5.28589 12.6099H5.12756L5.12756 12.61L5.28589 12.6099ZM19.9119 8.75049L19.8942 8.90783C20.457 8.97115 20.8848 9.35385 21.0334 9.905L21.1863 9.86377L21.3392 9.82254C21.1583 9.15204 20.628 8.67171 19.9296 8.59315L19.9119 8.75049ZM21.1863 9.86377H21.3446V9.86279H21.1863H21.0279V9.86377H21.1863ZM21.1863 9.86279L21.0279 9.86329L21.0504 17.0488L21.2087 17.0483L21.3671 17.0478L21.3446 9.8623L21.1863 9.86279ZM21.2087 17.0483L21.0545 17.0128C20.9121 17.6304 20.4609 18.0478 19.8315 18.0916L19.8425 18.2495L19.8535 18.4075C20.6337 18.3532 21.1922 17.8253 21.363 17.0839L21.2087 17.0483ZM19.8425 18.2495L19.8426 18.0912L8.27717 18.0863L8.2771 18.2446L8.27703 18.403L19.8425 18.4078L19.8425 18.2495ZM8.2771 18.2446L8.30559 18.0889C7.8431 18.0043 7.53826 17.7689 7.35767 17.4514C7.17422 17.129 7.11167 16.7081 7.16673 16.2488L7.00952 16.23L6.85231 16.2111C6.79168 16.7169 6.85642 17.2107 7.08243 17.608C7.3113 18.0103 7.6981 18.2997 8.24861 18.4004L8.2771 18.2446ZM7.00952 16.23L7.16673 16.2488C7.17835 16.1517 7.2151 16.1027 7.24845 16.0776C7.28388 16.0509 7.33273 16.0383 7.38816 16.045C7.50554 16.0593 7.59916 16.1483 7.59924 16.2662L7.75757 16.2661L7.9159 16.266C7.91571 15.9546 7.66709 15.7599 7.42641 15.7306C7.30281 15.7156 7.16867 15.7412 7.05792 15.8246C6.9451 15.9096 6.87249 16.0426 6.85231 16.2112L7.00952 16.23ZM7.75757 16.2661H7.59924V16.9985H7.75757H7.9159V16.2661H7.75757ZM7.75757 16.9985L7.86076 17.1186L11.9545 13.601L11.8513 13.481L11.7481 13.3609L7.65438 16.8784L7.75757 16.9985ZM11.8513 13.481L11.9539 13.3603L7.86014 9.8789L7.75757 9.99951L7.65499 10.1201L11.7487 13.6016L11.8513 13.481ZM7.75757 9.99951H7.59924V10.731H7.75757H7.9159V9.99951H7.75757ZM7.75757 10.731H7.59924C7.59924 10.8493 7.50546 10.9385 7.38812 10.9529C7.33269 10.9597 7.28385 10.9471 7.24844 10.9204C7.21511 10.8953 7.17835 10.8463 7.16673 10.7493L7.00952 10.7681L6.85231 10.7869C6.87249 10.9555 6.94513 11.0885 7.05802 11.1734C7.16883 11.2568 7.30303 11.2823 7.42666 11.2672C7.66745 11.2377 7.9159 11.0426 7.9159 10.731H7.75757ZM7.00952 10.7681L7.16673 10.7492C7.11096 10.2836 7.17648 9.85782 7.36495 9.53425C7.55041 9.21587 7.8625 8.98259 8.33443 8.90682L8.30933 8.75049L8.28423 8.59416C7.72326 8.68422 7.32684 8.97053 7.09132 9.37487C6.85881 9.77403 6.79088 10.2741 6.85231 10.7869L7.00952 10.7681ZM8.30933 8.75049V8.90882H19.9119V8.75049V8.59215H8.30933V8.75049ZM15.8191 13.9976L15.7353 13.8632C15.5588 13.9732 15.3976 14.1164 15.247 14.2567C15.0927 14.4004 14.9515 14.539 14.8018 14.6584C14.5085 14.8924 14.2206 15.0219 13.8465 14.9085L13.8005 15.0601L13.7546 15.2116C14.2726 15.3686 14.6689 15.1695 14.9993 14.9059C15.1615 14.7766 15.317 14.6242 15.4628 14.4884C15.6122 14.3493 15.7543 14.2245 15.9029 14.1319L15.8191 13.9976ZM13.8005 15.0601L13.8464 14.9085C13.6539 14.8502 13.4591 14.6912 13.2469 14.4892C13.0474 14.2994 12.8274 14.0654 12.613 13.9225L12.5251 14.0542L12.4373 14.1859C12.6215 14.3087 12.8064 14.5072 13.0286 14.7186C13.2381 14.918 13.4817 15.129 13.7547 15.2116L13.8005 15.0601ZM12.5251 14.0542L12.6132 13.9226C12.6087 13.9196 12.5632 13.8852 12.5226 13.8679C12.465 13.8434 12.3901 13.8352 12.3126 13.8761L12.3865 14.0161L12.4604 14.1561C12.4532 14.1599 12.4409 14.1641 12.4257 14.1641C12.4113 14.1642 12.4014 14.1605 12.3983 14.1592C12.396 14.1582 12.3973 14.1584 12.405 14.1636C12.4087 14.1661 12.4126 14.1688 12.4182 14.1727C12.4233 14.1763 12.43 14.1811 12.4371 14.1858L12.5251 14.0542ZM12.3865 14.0161L12.2822 13.8969L8.25881 17.4155L8.36304 17.5347L8.46727 17.6539L12.4907 14.1353L12.3865 14.0161ZM8.36304 17.5347L8.36305 17.693L19.8416 17.692L19.8416 17.5337L19.8415 17.3754L8.36302 17.3763L8.36304 17.5347ZM19.8416 17.5337L19.8895 17.6846C19.908 17.6787 19.9216 17.6705 19.9237 17.6693C19.9289 17.6662 19.9333 17.6633 19.9365 17.661C19.9432 17.6564 19.9497 17.6514 19.9557 17.6464C19.9673 17.6368 19.9827 17.6227 19.9971 17.6052C20.0082 17.5917 20.0349 17.5573 20.0433 17.5083C20.0481 17.4801 20.0475 17.4429 20.0299 17.4047C20.0122 17.3663 19.9837 17.3409 19.9573 17.3255L19.8777 17.4624L19.7981 17.5993C19.7801 17.5888 19.7571 17.5693 19.7423 17.5373C19.7277 17.5056 19.7276 17.4755 19.7312 17.4548C19.7345 17.4354 19.7412 17.422 19.7446 17.416C19.7482 17.4094 19.7514 17.4054 19.7525 17.404C19.7545 17.4016 19.755 17.4015 19.7539 17.4024C19.7536 17.4027 19.7543 17.402 19.7563 17.4006C19.7573 17.4 19.7597 17.3983 19.7632 17.3962C19.7636 17.396 19.7759 17.3884 19.7936 17.3828L19.8416 17.5337ZM19.8777 17.4624L19.9805 17.342L15.9219 13.8771L15.8191 13.9976L15.7163 14.118L19.7749 17.5828L19.8777 17.4624ZM16.4099 13.5122L16.3064 13.632L20.3435 17.1184L20.447 16.9985L20.5505 16.8787L16.5134 13.3924L16.4099 13.5122ZM20.447 16.9985L20.3903 17.1464C20.4464 17.1679 20.4942 17.1519 20.5155 17.1421C20.5373 17.1321 20.5521 17.1194 20.5589 17.1132C20.5732 17.1001 20.5833 17.0865 20.588 17.0799C20.599 17.0647 20.6087 17.0477 20.6157 17.035C20.6232 17.0212 20.6303 17.007 20.6359 16.9948C20.6387 16.9888 20.6417 16.9822 20.6443 16.9756C20.6444 16.9755 20.6527 16.9563 20.6562 16.9341L20.4998 16.9097L20.3433 16.8853C20.3454 16.8717 20.3489 16.8619 20.3491 16.8615C20.35 16.8588 20.3506 16.8572 20.3506 16.8572C20.3507 16.857 20.3501 16.8584 20.3487 16.8615C20.3459 16.8675 20.3419 16.8757 20.3376 16.8834C20.3329 16.8921 20.3304 16.8958 20.3307 16.8954C20.331 16.8949 20.3321 16.8934 20.334 16.8911C20.3357 16.8891 20.3395 16.8846 20.3454 16.8793C20.3501 16.875 20.363 16.8637 20.3831 16.8545C20.4026 16.8455 20.4489 16.8297 20.5037 16.8507L20.447 16.9985ZM20.4998 16.9097H20.6581V10.0884H20.4998H20.3414V16.9097H20.4998ZM20.4998 10.0884H20.6581C20.6581 10.0677 20.6538 10.0517 20.6532 10.0492C20.6518 10.0434 20.6503 10.0388 20.6494 10.0362C20.6476 10.0309 20.6458 10.0263 20.6447 10.0234C20.6422 10.0173 20.6394 10.011 20.6367 10.0053C20.6313 9.9936 20.6243 9.9794 20.6169 9.96545C20.6099 9.95255 20.6001 9.93514 20.5891 9.91954C20.5844 9.91285 20.5742 9.89885 20.5596 9.88537C20.5527 9.87902 20.5373 9.86571 20.5145 9.8554C20.4917 9.8451 20.4418 9.82963 20.3849 9.85386L20.447 9.99951L20.5091 10.1452C20.4536 10.1688 20.4053 10.1535 20.3842 10.144C20.3631 10.1345 20.3498 10.1226 20.345 10.1183C20.3391 10.1128 20.3352 10.1082 20.3335 10.1062C20.3317 10.1039 20.3306 10.1024 20.3303 10.102C20.3302 10.1018 20.3329 10.1059 20.3378 10.1152C20.3422 10.1233 20.3464 10.1319 20.3492 10.138C20.3507 10.1413 20.3513 10.1426 20.3512 10.1423C20.3511 10.1421 20.3509 10.1416 20.3506 10.1408C20.3503 10.1401 20.3498 10.1387 20.3491 10.1367C20.3486 10.1351 20.3473 10.1313 20.3461 10.1261C20.3456 10.1243 20.3414 10.1087 20.3414 10.0884H20.4998ZM20.447 9.99951L20.3431 9.88006L16.306 13.3928L16.4099 13.5122L16.5138 13.6317L20.551 10.119L20.447 9.99951ZM8.99194 13.9731L8.99178 14.1315C9.11333 14.1316 9.21252 14.2304 9.21252 14.354H9.37085H9.52918C9.52918 14.0569 9.2897 13.8151 8.99211 13.8148L8.99194 13.9731ZM9.37085 14.354L9.21252 14.3538C9.21239 14.4775 9.11305 14.5764 8.99178 14.5765L8.99194 14.7349L8.99211 14.8932C9.28973 14.8929 9.52889 14.6508 9.52918 14.3542L9.37085 14.354ZM8.99194 14.7349V14.5765H4.17163V14.7349V14.8932H8.99194V14.7349ZM4.17163 14.7349V14.5765C4.04994 14.5765 3.9502 14.4773 3.95008 14.3538L3.79175 14.354L3.63341 14.3542C3.63371 14.6513 3.87406 14.8932 4.17163 14.8932V14.7349ZM3.79175 14.354H3.95008C3.95008 14.2306 4.04965 14.1315 4.17163 14.1315V13.9731V13.8148C3.87409 13.8148 3.63341 14.0564 3.63341 14.354H3.79175ZM4.17163 13.9731V14.1315H8.99194V13.9731V13.8148H4.17163V13.9731ZM8.36304 9.46436L8.20903 9.42761C8.20153 9.45904 8.19831 9.49479 8.20583 9.53255C8.21359 9.57156 8.23062 9.60169 8.24774 9.62391C8.26248 9.64304 8.27939 9.65847 8.28449 9.66329C8.29237 9.67075 8.29263 9.6713 8.29213 9.67068L8.41577 9.57178L8.53941 9.47287C8.52447 9.45419 8.50911 9.43987 8.50213 9.43327C8.49781 9.42918 8.49644 9.42787 8.49542 9.42683C8.49469 9.42609 8.4962 9.42754 8.49855 9.43059C8.50105 9.43384 8.50471 9.43914 8.50823 9.44639C8.51183 9.45383 8.51467 9.46205 8.5164 9.47072C8.5199 9.4883 8.51731 9.49998 8.51705 9.5011L8.36304 9.46436ZM8.41577 9.57178L8.29246 9.67109C8.33275 9.72113 8.40742 9.78764 8.47086 9.84246C8.54378 9.90546 8.60393 9.95476 8.64925 9.99451L8.75366 9.87549L8.85808 9.75646C8.81668 9.72015 8.73746 9.65432 8.67791 9.60285C8.60887 9.5432 8.55795 9.49589 8.53909 9.47247L8.41577 9.57178ZM8.75366 9.87549L8.64894 9.99425C10.2218 11.3811 11.9279 12.9121 13.5673 14.2134L13.6658 14.0894L13.7642 13.9653C12.1329 12.6706 10.4348 11.1468 8.85838 9.75673L8.75366 9.87549ZM13.6658 14.0894L13.5675 14.2135C13.6349 14.2669 13.7485 14.3726 13.8595 14.4357C13.9841 14.5065 14.146 14.5506 14.3245 14.4643L14.2556 14.3218L14.1867 14.1792C14.1337 14.2048 14.0858 14.2001 14.016 14.1604C13.9325 14.113 13.8669 14.0466 13.764 13.9652L13.6658 14.0894ZM14.2556 14.3218L14.3583 14.4423L19.9803 9.65621L19.8777 9.53564L19.775 9.41508L14.153 14.2012L14.2556 14.3218ZM19.8777 9.53564L19.9546 9.67403C19.9818 9.65892 20.0116 9.63333 20.0301 9.59352C20.0484 9.554 20.0484 9.51571 20.0431 9.48743C20.0341 9.43843 20.0068 9.40416 19.9958 9.39099C19.9812 9.3736 19.9657 9.35957 19.9539 9.35C19.9479 9.3451 19.9411 9.33988 19.9338 9.33504C19.9305 9.33281 19.9249 9.32914 19.9178 9.32537C19.9145 9.32358 19.9082 9.32033 19.9 9.31713C19.8966 9.31581 19.8731 9.30602 19.8416 9.30602V9.46436V9.62269C19.8103 9.62269 19.7871 9.613 19.7843 9.61188C19.7766 9.60887 19.7709 9.60592 19.7683 9.60451C19.7627 9.60151 19.7589 9.59897 19.7577 9.5982C19.7561 9.5971 19.755 9.59633 19.7546 9.59603C19.7544 9.59584 19.7542 9.59571 19.7541 9.59563C19.754 9.59555 19.7539 9.59551 19.7539 9.5955C19.7539 9.59549 19.754 9.59556 19.7541 9.59568C19.7543 9.5958 19.7544 9.5959 19.7545 9.59597C19.7547 9.59621 19.7542 9.59573 19.753 9.59437C19.7521 9.59324 19.749 9.58952 19.7454 9.58324C19.7422 9.57759 19.7354 9.56444 19.7318 9.54511C19.7279 9.52443 19.7275 9.49339 19.7427 9.46043C19.7581 9.42719 19.7824 9.40749 19.8008 9.39726L19.8777 9.53564ZM19.8416 9.46436V9.30602H8.36304V9.46436V9.62269H19.8416V9.46436ZM8.99194 12.228L8.99178 12.3864C9.11281 12.3865 9.21252 12.4857 9.21252 12.6099H9.37085H9.52918C9.52918 12.3133 9.29023 12.07 8.99211 12.0697L8.99194 12.228ZM9.37085 12.6099L9.21252 12.6097C9.21238 12.7334 9.11302 12.8323 8.99178 12.8324L8.99194 12.9907L8.99211 13.1491C9.28973 13.1487 9.52886 12.9066 9.52918 12.61L9.37085 12.6099ZM8.99194 12.9907V12.8324H5.66577V12.9907V13.1491H8.99194V12.9907ZM5.66577 12.9907V12.8324C5.5441 12.8324 5.44435 12.7332 5.44422 12.6097L5.28589 12.6099L5.12756 12.61C5.12787 12.9071 5.3682 13.1491 5.66577 13.1491V12.9907ZM5.28589 12.6099H5.44422C5.44422 12.486 5.54432 12.3864 5.66577 12.3864V12.228V12.0697C5.3677 12.0697 5.12756 12.3128 5.12756 12.6099H5.28589ZM5.66577 12.228V12.3864H8.99194V12.228V12.0697H5.66577V12.228Z" fill="white" mask="url(#path-2-outside-1_8224_7752)"/>
</svg>
