<svg width="27" height="27" viewBox="0 0 27 27" fill="none" xmlns="http://www.w3.org/2000/svg">
<g clip-path="url(#clip0_8224_7723)">
<path d="M27 13.095C27 20.6194 21.1048 26.19 13.5 26.19C12.1343 26.19 10.8238 26.0096 9.59202 25.6711C9.3528 25.6046 9.09846 25.6235 8.87112 25.7234L6.19164 26.9066C5.49072 27.216 4.69962 26.7176 4.6764 25.9519L4.60296 23.5499C4.59378 23.254 4.46094 22.9775 4.24008 22.7804C1.61298 20.4314 0 17.0311 0 13.095C0 5.57064 5.89518 0 13.5 0C21.1048 0 27 5.57064 27 13.095Z" fill="#0866FF"/>
<path d="M17.1656 16.8647L21.8657 9.60066C22.3382 8.87058 21.4629 8.02062 20.7469 8.51472L15.8404 11.8989C15.6752 12.0128 15.457 12.0161 15.2885 11.907L10.9334 9.08928C10.5646 8.8506 10.0727 8.95644 9.83455 9.32472L5.13385 16.5888C4.66135 17.3189 5.53669 18.1688 6.25273 17.6747L11.1602 14.29C11.3255 14.1761 11.5436 14.1728 11.7121 14.2819L16.0661 17.0991C16.435 17.3378 16.9269 17.2319 17.1656 16.8637V16.8647Z" fill="white"/>
</g>
<defs>
<clipPath id="clip0_8224_7723">
<rect width="27" height="27" fill="white"/>
</clipPath>
</defs>
</svg>
