<svg width="27" height="27" viewBox="0 0 27 27" fill="none" xmlns="http://www.w3.org/2000/svg">
<g clip-path="url(#clip0_8224_7711)">
<path d="M26.744 10.7431C26.228 8.14328 24.9509 5.75408 23.0746 3.87714H23.0793C20.7668 1.59795 17.7041 0.229896 14.4585 0.0260711C11.2129 -0.177753 8.00188 0.796825 5.42059 2.76893C2.83929 4.74103 1.06177 7.57838 0.41577 10.7552C-0.230231 13.9327 0.299977 17.2351 1.90753 20.0535L0 26.9997L7.13107 25.1356C9.10293 26.2074 11.3131 26.7689 13.5592 26.7683C16.2184 26.7635 18.816 25.9746 21.0255 24.4999C23.235 23.0258 24.957 20.9323 25.9748 18.4843C26.9925 16.0364 27.26 13.3422 26.744 10.7431ZM24.3909 16.141C23.7727 18.5336 22.3737 20.6528 20.4154 22.1667C18.4564 23.6805 16.0485 24.5026 13.5701 24.5039H13.5653C11.563 24.5039 9.59792 23.9674 7.87525 22.9509L7.46625 22.7026L3.2273 23.8087L4.35949 19.7059L4.0954 19.2861C2.77767 17.1939 2.19464 14.7244 2.43842 12.2657C2.68219 9.80695 3.73854 7.49874 5.44158 5.70414C7.14461 3.90953 9.39816 2.72911 11.8474 2.34981C14.2967 1.9705 16.8028 2.41325 18.9724 3.60785C21.142 4.80312 22.8511 6.68209 23.8323 8.95116C24.8135 11.2202 25.0099 13.7491 24.3916 16.1417L24.3909 16.141Z" fill="#00AC55"/>
<path d="M19.6861 16.1594C19.3523 15.9907 17.6912 15.1801 17.3899 15.0681C17.0879 14.9561 16.859 14.9014 16.6416 15.2368C16.4249 15.5723 15.7742 16.3255 15.5772 16.5489C15.3801 16.7723 15.1858 16.7972 14.8492 16.6332C13.8606 16.2425 12.9471 15.6843 12.1487 14.9831C11.414 14.3048 10.7843 13.5232 10.2785 12.662C10.0841 12.3266 10.2588 12.145 10.4254 11.9783C10.5927 11.8116 10.7619 11.5882 10.9238 11.3918C11.0619 11.2224 11.1743 11.0341 11.2576 10.833C11.3023 10.7405 11.3233 10.6386 11.3186 10.536C11.3138 10.4335 11.2833 10.3342 11.2298 10.2465C11.1479 10.0778 10.4816 8.42964 10.1952 7.76147C9.90873 7.09263 9.64396 7.19724 9.44691 7.18712C9.24986 7.17699 9.02776 7.18712 8.80362 7.18712C8.63366 7.19184 8.46572 7.23099 8.31201 7.30388C8.1583 7.37609 8.02084 7.47936 7.90843 7.60759C7.52922 7.96192 7.22789 8.39049 7.02339 8.86631C6.81889 9.34212 6.71529 9.85573 6.71935 10.3734C6.71935 12.0236 7.924 13.6042 8.09058 13.8377C8.25784 14.0713 10.462 17.4465 13.8254 18.8976C14.4504 19.1669 15.0896 19.4024 15.7403 19.6035C16.4263 19.8107 17.1508 19.856 17.8571 19.7352C18.5031 19.638 19.852 18.9253 20.1262 18.1423C20.4005 17.3594 20.4052 16.6886 20.3233 16.5495C20.2407 16.4105 20.0314 16.3261 19.6847 16.1594H19.6861Z" fill="#00AC55"/>
</g>
<defs>
<clipPath id="clip0_8224_7711">
<rect width="27" height="27" fill="white"/>
</clipPath>
</defs>
</svg>
