<svg width="24" height="24" viewBox="0 0 24 24" fill="none" xmlns="http://www.w3.org/2000/svg">
<path d="M12.3221 21.4071C12.7443 21.3684 13.1201 21.0608 13.2206 20.616L13.7753 18.1707L16.4862 15.159C16.8172 14.792 16.9999 14.3151 16.9999 13.8211V4.5887C16.9999 3.4837 16.1049 2.5887 14.9999 2.5887H6.96863C6.22763 2.5887 5.55674 3.02498 5.25574 3.70198L2.25378 10.4578C2.08678 10.8318 1.99988 11.2373 1.99988 11.6473V12.5887C1.99988 13.6887 2.89988 14.5887 3.99988 14.5887H10.9999C10.9999 14.5887 9.99988 16.9594 9.99988 18.7254C9.99988 20.3384 11.0375 21.0444 11.8925 21.3524C12.0352 21.4041 12.1814 21.4199 12.3221 21.4071ZM20.4999 14.5887C21.3279 14.5887 21.9999 13.9167 21.9999 13.0887V4.0887C21.9999 3.2607 21.3279 2.5887 20.4999 2.5887C19.6719 2.5887 18.9999 3.2607 18.9999 4.0887V13.0887C18.9999 13.9167 19.6719 14.5887 20.4999 14.5887Z" fill="white"/>
</svg>
