<svg width="24" height="24" viewBox="0 0 24 24" fill="none" xmlns="http://www.w3.org/2000/svg">
<path d="M7.17676 7C7.63685 7.00004 8.01057 7.37295 8.01074 7.83301C8.01074 8.29322 7.63696 8.66695 7.17676 8.66699H5.66699V20.333H19V8.66699H17.4893C17.0292 8.66682 16.6562 8.29314 16.6562 7.83301C16.6564 7.37303 17.0293 7.00018 17.4893 7H19C19.9204 7.00004 20.667 7.74654 20.667 8.66699V20.333C20.667 21.2535 19.9204 22 19 22H5.66699C4.74652 22 4 21.2535 4 20.333V8.66699C4 7.74652 4.74652 7 5.66699 7H7.17676ZM15.4326 5.09473L15.4893 5.1582C15.7557 5.48535 15.7372 5.96748 15.4326 6.27246C15.1277 6.57741 14.6447 6.59667 14.3174 6.33008L14.2539 6.27246L13.166 5.18457V15.333C13.166 15.7932 12.7932 16.166 12.333 16.166C11.8728 16.166 11.5 15.7932 11.5 15.333V5.19531L10.4229 6.27246C10.0974 6.59788 9.56958 6.59786 9.24414 6.27246C8.91878 5.94707 8.91887 5.42017 9.24414 5.09473L12.3379 2L15.4326 5.09473Z" fill="white"/>
</svg>
