<svg width="668" height="595" viewBox="0 0 668 595" fill="none" xmlns="http://www.w3.org/2000/svg">
<g filter="url(#filter0_f_7774_7231)">
<path d="M204.159 319.1C146.745 319.1 100.033 358.502 100.033 406.933C100.033 455.363 146.745 494.765 204.159 494.765C261.573 494.765 308.285 455.363 308.285 406.933C308.285 358.502 261.573 319.1 204.159 319.1ZM204.159 437.434C184.213 437.434 167.999 423.757 167.999 406.933C167.999 390.108 184.213 376.431 204.159 376.431C224.105 376.431 240.319 390.108 240.319 406.933C240.319 423.757 224.105 437.434 204.159 437.434Z" fill="#DCFCE7"/>
<path d="M476.173 391.175L174.776 136.92L106.831 194.251L154.873 234.776L174.776 217.987L476.173 472.223L552.16 408.144L504.118 367.602L476.173 391.175Z" fill="#DCFCE7"/>
<path d="M526.381 204.98L567.967 193.004L524.515 187.504L561.018 166.862L517.331 171.059L546.263 143.144L505.363 156.713L524.751 123.443L489.406 145.478L497.921 109.115L470.533 138.115L467.595 101.118L450.051 135.112L435.874 100.033L429.354 136.704L404.883 105.894L409.838 142.746L376.745 118.341L392.851 152.841L353.389 136.487L379.533 166.301L336.402 159.119L370.804 182.221L326.944 184.7L367.243 199.498L325.657 211.457L369.109 216.956L332.606 237.598L376.273 233.419L347.34 261.334L388.24 247.748L368.873 281.036L404.218 258.982L395.704 295.364L423.07 266.345L426.03 303.342L443.552 269.349L457.75 304.446L464.27 267.775L488.742 298.566L483.787 261.732L516.859 286.137L500.773 251.637L540.215 267.974L514.092 238.159L557.222 245.342L522.821 222.257L566.681 219.779L526.381 204.98Z" fill="#DCFCE7"/>
</g>
<defs>
<filter id="filter0_f_7774_7231" x="0" y="0" width="668" height="594.798" filterUnits="userSpaceOnUse" color-interpolation-filters="sRGB">
<feFlood flood-opacity="0" result="BackgroundImageFix"/>
<feBlend mode="normal" in="SourceGraphic" in2="BackgroundImageFix" result="shape"/>
<feGaussianBlur stdDeviation="50" result="effect1_foregroundBlur_7774_7231"/>
</filter>
</defs>
</svg>
