<svg width="24" height="24" viewBox="0 0 24 24" fill="none" xmlns="http://www.w3.org/2000/svg">
<path d="M5.50195 4.00391C4.12395 4.00391 3.00391 5.11919 3.00391 6.49219L3 20.7461C3 21.2521 3.30548 21.7093 3.77148 21.9023C3.92548 21.9663 4.088 21.9961 4.25 21.9961C4.575 21.9961 4.89577 21.8699 5.13477 21.6309L8.76953 17.9961H18.502C19.88 17.9961 21.002 16.8722 21.002 15.4922V6.49219C21.002 5.11919 19.88 4.00391 18.502 4.00391H5.50195ZM14.5605 6.88672C14.9745 6.88672 15.3105 7.22272 15.3105 7.63672V8.00586H17.2285C17.6425 8.00586 17.9785 8.34186 17.9785 8.75586C17.9785 9.16986 17.6425 9.50781 17.2285 9.50781H17.1172C16.9392 9.86981 16.4236 10.8695 15.6406 12.0195L17.1426 13.3691C17.4516 13.6461 17.4772 14.1197 17.2012 14.4277C17.0532 14.5927 16.8476 14.6777 16.6426 14.6777C16.4636 14.6777 16.2846 14.6134 16.1406 14.4844L14.7422 13.2305C14.2972 13.7825 13.8037 14.3293 13.2617 14.8203C13.1177 14.9503 12.9378 15.0156 12.7578 15.0156C12.5538 15.0156 12.3502 14.9325 12.2012 14.7695C11.9232 14.4625 11.9469 13.988 12.2539 13.709C12.7539 13.256 13.212 12.7436 13.625 12.2246L12.8828 11.5586C12.5738 11.2816 12.5482 10.806 12.8242 10.498C13.1032 10.19 13.5768 10.1664 13.8848 10.4414L14.5117 11.0059C14.8917 10.4359 15.1999 9.90786 15.4219 9.50586H12.3281C11.9141 9.50586 11.5781 9.16986 11.5781 8.75586C11.5781 8.34186 11.9141 8.00586 12.3281 8.00586H13.8105V7.63672C13.8105 7.22272 14.1465 6.88672 14.5605 6.88672ZM7.89844 7.92383C9.22144 7.92383 10.9805 8.21012 10.9805 10.7031V14.1738C10.9805 14.5878 10.6445 14.9238 10.2305 14.9238H8.48047C7.10147 14.9238 5.98047 13.9072 5.98047 12.6602C5.98047 11.4132 7.10147 10.3984 8.48047 10.3984H9.4707C9.4167 9.66444 9.10744 9.42383 7.89844 9.42383C7.48444 9.42383 7.14844 9.08783 7.14844 8.67383C7.14844 8.25983 7.48444 7.92383 7.89844 7.92383ZM8.48047 11.8984C7.93847 11.8984 7.48047 12.2472 7.48047 12.6602C7.48047 13.0732 7.93847 13.4238 8.48047 13.4238H9.48047V11.8984H8.48047Z" fill="white"/>
</svg>
