<svg width="24" height="24" viewBox="0 0 24 24" fill="none" xmlns="http://www.w3.org/2000/svg">
<path d="M12 2C12.5523 2 13 2.44772 13 3C13 3.55228 12.5523 4 12 4H5C4.73478 4 4.4805 4.10543 4.29297 4.29297C4.10543 4.4805 4 4.73478 4 5V19C4 19.2652 4.10543 19.5195 4.29297 19.707C4.48051 19.8946 4.73478 20 5 20H19C19.2652 20 19.5195 19.8946 19.707 19.707C19.8946 19.5195 20 19.2652 20 19V12C20 11.4477 20.4477 11 21 11C21.5523 11 22 11.4477 22 12V19C22 19.7957 21.6837 20.5585 21.1211 21.1211C20.5585 21.6837 19.7957 22 19 22H5C4.20435 22 3.44152 21.6837 2.87891 21.1211C2.3163 20.5585 2 19.7957 2 19V5C2 4.20435 2.3163 3.44152 2.87891 2.87891C3.44152 2.3163 4.20435 2 5 2H12ZM19.875 2.00391C20.4375 2.00401 20.9773 2.22727 21.375 2.625C21.7727 3.0228 21.9961 3.5625 21.9961 4.125C21.9961 4.68751 21.7727 5.22721 21.375 5.625L12.3613 14.6387C12.1239 14.8758 11.8309 15.0495 11.5088 15.1436L8.63574 15.9844C8.54969 16.0095 8.45792 16.0105 8.37109 15.9883C8.28442 15.966 8.20489 15.9207 8.1416 15.8574C8.07836 15.7941 8.03394 15.7146 8.01172 15.6279C7.9895 15.5412 7.99061 15.4502 8.01562 15.3643L8.85547 12.4912C8.94999 12.1693 9.12387 11.8757 9.36133 11.6387L18.375 2.625C18.7728 2.22728 19.3125 2.00391 19.875 2.00391Z" fill="white"/>
</svg>
