<svg width="24" height="24" viewBox="0 0 24 24" fill="none" xmlns="http://www.w3.org/2000/svg">
<path d="M11.9998 2.00003C7.31276 2.00003 3.49976 5.81303 3.49976 10.5C3.49976 12.518 4.22426 14.4765 5.54626 16.024C5.69726 16.1955 9.25976 20.2435 10.4498 21.378C10.8843 21.7925 11.4418 22 11.9998 22C12.5578 22 13.1153 21.7925 13.5503 21.378C14.9338 20.0585 18.3123 16.1855 18.4603 16.0155C19.7753 14.4765 20.4998 12.518 20.4998 10.5C20.4998 5.81303 16.6868 2.00003 11.9998 2.00003ZM11.9998 13C10.6193 13 9.49975 11.8805 9.49975 10.5C9.49975 9.11953 10.6193 8.00003 11.9998 8.00003C13.3803 8.00003 14.4998 9.11953 14.4998 10.5C14.4998 11.8805 13.3803 13 11.9998 13Z" fill="white"/>
</svg>
