<svg width="24" height="24" viewBox="0 0 24 24" fill="none" xmlns="http://www.w3.org/2000/svg">
<path d="M22.1538 3H1.84615C0.826154 3 0 3.8055 0 4.8V19.2C0 20.1945 0.826154 21 1.84615 21H22.1538C23.1738 21 24 20.1945 24 19.2V4.8C24 3.8055 23.1738 3 22.1538 3ZM2.76923 9.3C2.76923 8.8032 3.18277 8.4 3.69231 8.4H5.53846C6.048 8.4 6.46154 8.8032 6.46154 9.3V11.1C6.46154 11.5968 6.048 12 5.53846 12H3.69231C3.18277 12 2.76923 11.5968 2.76923 11.1V9.3ZM3.69231 17.4C3.18277 17.4 2.76923 16.9968 2.76923 16.5C2.76923 16.0032 3.18277 15.6 3.69231 15.6C4.20185 15.6 4.61538 16.0032 4.61538 16.5C4.61538 16.9968 4.20185 17.4 3.69231 17.4ZM6.46154 17.4C5.952 17.4 5.53846 16.9968 5.53846 16.5C5.53846 16.0032 5.952 15.6 6.46154 15.6C6.97108 15.6 7.38462 16.0032 7.38462 16.5C7.38462 16.9968 6.97108 17.4 6.46154 17.4ZM10.1538 17.4C9.64431 17.4 9.23077 16.9968 9.23077 16.5C9.23077 16.0032 9.64431 15.6 10.1538 15.6C10.6634 15.6 11.0769 16.0032 11.0769 16.5C11.0769 16.9968 10.6634 17.4 10.1538 17.4ZM12.9231 17.4C12.4135 17.4 12 16.9968 12 16.5C12 16.0032 12.4135 15.6 12.9231 15.6C13.4326 15.6 13.8462 16.0032 13.8462 16.5C13.8462 16.9968 13.4326 17.4 12.9231 17.4ZM16.6154 17.4C16.1058 17.4 15.6923 16.9968 15.6923 16.5C15.6923 16.0032 16.1058 15.6 16.6154 15.6C17.1249 15.6 17.5385 16.0032 17.5385 16.5C17.5385 16.9968 17.1249 17.4 16.6154 17.4ZM19.3846 17.4C18.8751 17.4 18.4615 16.9968 18.4615 16.5C18.4615 16.0032 18.8751 15.6 19.3846 15.6C19.8942 15.6 20.3077 16.0032 20.3077 16.5C20.3077 16.9968 19.8942 17.4 19.3846 17.4Z" fill="white"/>
</svg>
