<svg width="24" height="24" viewBox="0 0 24 24" fill="none" xmlns="http://www.w3.org/2000/svg">
<path d="M10.2 0C9.7032 0 9.3 0.413538 9.3 0.923077C9.3 5.59108 3 9.23077 3 15.6923C3 19.7095 5.5848 24 12.9 24C17.8806 24 21 20.3262 21 15.6923C21 13.4714 19.9152 7.80629 19.1367 6.1226H19.1332C19.0009 5.78106 18.6798 5.53846 18.3 5.53846C17.5485 5.53846 17.4158 6.29387 17.4158 6.29387C17.4158 6.29387 17.004 8.18769 15.6 9.23077C15.6 5.57354 12.9025 2.00002 10.8451 0.28125C10.8451 0.28125 10.6401 0 10.2 0ZM9.44941 10.9435C10.6293 10.9435 11.4006 11.7745 11.4006 13.0511C11.4006 14.3231 10.6293 15.1587 9.44941 15.1587C8.27581 15.1587 7.5 14.3222 7.5 13.0511C7.5 11.78 8.27131 10.9435 9.44941 10.9435ZM13.691 11.1472H15.5262L12.4904 15.4471L10.3652 19.2981H8.5248L11.5096 15.0216L13.691 11.1472ZM9.44941 12.1587C9.11371 12.1587 8.90977 12.4863 8.90977 13.0457C8.90977 13.5995 9.11371 13.9327 9.44941 13.9327C9.77971 13.9327 9.98379 13.5986 9.98379 13.0457C9.98379 12.4808 9.79141 12.1587 9.44941 12.1587ZM14.5559 15.2867C15.7286 15.2867 16.5 16.1177 16.5 17.3888C16.5 18.6664 15.7286 19.5018 14.5559 19.5018C13.3832 19.5018 12.6117 18.6654 12.6117 17.3888C12.6117 16.1177 13.3832 15.2867 14.5559 15.2867ZM14.5559 16.5036C14.2202 16.5036 14.0162 16.8312 14.0162 17.3906C14.0162 17.9445 14.2202 18.2776 14.5559 18.2776C14.8862 18.2776 15.0902 17.9445 15.0902 17.3906C15.0902 16.8248 14.8907 16.5036 14.5559 16.5036Z" fill="white"/>
</svg>
