<svg width="24" height="24" viewBox="0 0 24 24" fill="none" xmlns="http://www.w3.org/2000/svg">
<path d="M10.1538 1.5C9.90831 1.5 9.67382 1.59584 9.5012 1.76749L8.84856 2.41304H5.29327C3.92435 2.41304 2.74493 3.42394 2.55108 4.7652L2.23197 6.97826H4.09796L4.37921 5.02199C4.4429 4.57552 4.83727 4.23913 5.29327 4.23913H9.23077C9.47631 4.23913 9.7108 4.14329 9.88341 3.97164L10.5361 3.32609H13.4639L14.1166 3.97164C14.2892 4.14329 14.5237 4.23913 14.7692 4.23913H18.7067C19.1627 4.23913 19.5571 4.57639 19.6208 5.02378L19.902 6.97826H21.768L21.4489 4.7652C21.2541 3.42394 20.0757 2.41304 18.7067 2.41304H15.1514L14.4988 1.76749C14.3262 1.59584 14.0917 1.5 13.8462 1.5H10.1538ZM0.923077 8.80435C0.413538 8.80435 0 9.21339 0 9.71739V11.5435C0 12.0475 0.413538 12.4565 0.923077 12.4565H1.07632L2.51142 20.9735C2.66003 21.8537 3.43049 22.5 4.33233 22.5H19.6659C20.5686 22.5 21.3382 21.8537 21.4868 20.9735L22.9237 12.4565H23.0769C23.5865 12.4565 24 12.0475 24 11.5435V9.71739C24 9.21339 23.5865 8.80435 23.0769 8.80435H0.923077ZM7.38462 13.3696C7.89415 13.3696 8.30769 13.7786 8.30769 14.2826V18.8478C8.30769 19.3518 7.89415 19.7609 7.38462 19.7609C6.87508 19.7609 6.46154 19.3518 6.46154 18.8478V14.2826C6.46154 13.7786 6.87508 13.3696 7.38462 13.3696ZM12 13.3696C12.5095 13.3696 12.9231 13.7786 12.9231 14.2826V18.8478C12.9231 19.3518 12.5095 19.7609 12 19.7609C11.4905 19.7609 11.0769 19.3518 11.0769 18.8478V14.2826C11.0769 13.7786 11.4905 13.3696 12 13.3696ZM16.6154 13.3696C17.1249 13.3696 17.5385 13.7786 17.5385 14.2826V18.8478C17.5385 19.3518 17.1249 19.7609 16.6154 19.7609C16.1058 19.7609 15.6923 19.3518 15.6923 18.8478V14.2826C15.6923 13.7786 16.1058 13.3696 16.6154 13.3696Z" fill="white"/>
</svg>
