<svg width="24" height="24" viewBox="0 0 24 24" fill="none" xmlns="http://www.w3.org/2000/svg">
<g clip-path="url(#clip0_0_40)">
<path d="M16.4994 0C15.2199 0.0884997 13.7244 0.907497 12.8529 1.97399C12.0579 2.94149 11.4039 4.37849 11.6589 5.77498C13.0569 5.81848 14.5014 4.97998 15.3384 3.89549C16.1214 2.88599 16.7139 1.458 16.4994 0Z" fill="#121535"/>
<path d="M21.5557 8.05181C20.3272 6.51131 18.6007 5.61732 16.9702 5.61732C14.8177 5.61732 13.9072 6.64781 12.4117 6.64781C10.8697 6.64781 9.69824 5.62032 7.83675 5.62032C6.00825 5.62032 4.06126 6.73781 2.82676 8.64881C1.09127 11.3398 1.38827 16.3993 4.20076 20.7088C5.20726 22.2508 6.55125 23.9848 8.30925 23.9998C9.87374 24.0148 10.3147 22.9963 12.4342 22.9858C14.5537 22.9738 14.9557 24.0133 16.5172 23.9968C18.2767 23.9833 19.6942 22.0618 20.7007 20.5198C21.4222 19.4143 21.6907 18.8578 22.2502 17.6098C18.1807 16.0603 17.5282 10.2733 21.5557 8.05181Z" fill="#121535"/>
</g>
<defs>
<clipPath id="clip0_0_40">
<rect width="23.6407" height="23.6407" fill="white" transform="scale(1.0152)"/>
</clipPath>
</defs>
</svg>
