<svg width="24" height="24" viewBox="0 0 24 24" fill="none" xmlns="http://www.w3.org/2000/svg">
<path d="M14.3177 19.7389C14.6664 20.0875 15.2262 20.0875 15.5748 19.7389L22.6852 12.6285C22.7662 12.5475 22.8325 12.4469 22.8767 12.3388C22.9675 12.1203 22.9675 11.8797 22.8767 11.6612C22.8325 11.5532 22.7662 11.4525 22.6852 11.3715L15.5748 4.26111C15.2262 3.91247 14.6664 3.91247 14.3177 4.26111C13.9691 4.60976 13.9691 5.16955 14.3177 5.51819L19.9108 11.1112L1.94337 11.1112C1.45232 11.1112 1.05458 11.509 1.05458 12C1.05458 12.491 1.45232 12.8888 1.94337 12.8888L19.9108 12.8888L14.3177 18.4818C13.9691 18.8305 13.9691 19.3903 14.3177 19.7389Z" fill="white"/>
</svg>
