<svg width="24" height="24" viewBox="0 0 24 24" fill="none" xmlns="http://www.w3.org/2000/svg">
<path d="M17.1248 0.269845C17.656 0.649234 17.8524 1.33743 17.6113 1.93739L14.1115 10.5883H20.571C21.1737 10.5883 21.7094 10.9589 21.9147 11.5191C22.12 12.0794 21.9459 12.7058 21.4861 13.0852L8.62963 23.6728C8.12519 24.0875 7.40647 24.1095 6.87525 23.7302C6.34403 23.3508 6.14761 22.6626 6.38867 22.0626L9.8885 13.4117H3.42899C2.82634 13.4117 2.29065 13.0411 2.0853 12.4809C1.87996 11.9206 2.05406 11.2942 2.51385 10.9148L15.3704 0.327195C15.8748 -0.0874855 16.5935 -0.109543 17.1248 0.269845Z" fill="white"/>
</svg>
