<svg width="42" height="25" viewBox="0 0 42 25" fill="none" xmlns="http://www.w3.org/2000/svg">
<path d="M0 5H22V20H0V5Z" fill="#33691E"/>
<path d="M9.61993 8.85428C9.60939 8.85376 9.59381 8.86053 9.57135 8.87563C9.52185 8.91365 9.42331 9.0298 9.4201 9.16417C9.41689 9.23969 9.40452 9.23969 9.44806 9.28761C9.47968 9.33917 9.51085 9.33396 9.57456 9.29646C9.61123 9.26573 9.6236 9.24646 9.63552 9.19542C9.65064 9.10948 9.55577 9.23605 9.54385 9.14021C9.52277 9.05167 9.58327 9.01469 9.64056 8.92875C9.64239 8.88813 9.64331 8.85532 9.61993 8.85428Z" fill="white"/>
<path d="M10.5453 8.85988C10.5275 8.86249 10.5059 8.88853 10.4757 8.95051C10.4541 9.01561 10.3611 9.11405 10.428 9.31717C10.483 9.44582 10.5055 9.65519 10.4807 9.88801C10.4427 9.95415 10.434 9.97707 10.384 10.0432C10.3139 10.1292 10.2378 10.1073 10.1796 10.075C10.1251 10.0333 10.0824 10.012 10.0572 9.87915C10.0618 9.66769 10.0723 9.32186 10.0384 9.24842C9.98847 9.13488 9.90551 9.17551 9.87022 9.20988C9.70063 9.38644 9.61676 9.68384 9.56543 9.92082C9.51822 10.0932 9.46826 10.0437 9.43297 9.97394C9.34726 9.8828 9.3413 9.16874 9.23772 9.28592C9.0718 9.82447 9.33305 10.414 9.51363 10.3568C9.64426 10.4182 9.72676 10.1359 9.78038 9.82707C9.81705 9.74061 9.84501 9.73019 9.8638 9.77499C9.85876 10.1859 9.88993 10.2776 9.98251 10.4021C10.1897 10.5838 10.3611 10.425 10.3748 10.4099C10.3881 10.3948 10.5362 10.2265 10.5362 10.2265C10.5719 10.1838 10.6196 10.1812 10.6705 10.2187C10.72 10.2698 10.7136 10.3573 10.819 10.4182C10.9079 10.4588 11.0976 10.4281 11.1416 10.3411C11.2008 10.226 11.2154 10.1859 11.2425 10.1422C11.2846 10.0781 11.3571 10.1068 11.3571 10.1265C11.3502 10.162 11.308 10.1974 11.3369 10.2614C11.3873 10.3042 11.3988 10.2765 11.4286 10.2672C11.5335 10.2099 11.6128 9.95103 11.6128 9.95103C11.6174 9.85415 11.5693 9.86144 11.5381 9.88176C11.4978 9.90988 11.4955 9.91926 11.4547 9.94738C11.4033 9.95624 11.3034 9.99478 11.2544 9.9078C11.204 9.80363 11.204 9.6578 11.1655 9.55259C11.1655 9.54478 11.0981 9.38697 11.1604 9.37707C11.1916 9.38384 11.2594 9.40363 11.27 9.33957C11.303 9.27707 11.1989 9.09999 11.1283 9.0104C11.0669 8.93384 10.9821 8.92447 10.9001 9.00259C10.8423 9.06249 10.8511 9.12967 10.8396 9.19374C10.8249 9.26665 10.8277 9.35728 10.8932 9.45415C10.9505 9.5828 11.055 9.7479 11.0206 9.98072C11.0206 9.98072 10.9601 10.0917 10.8533 10.0771C10.8089 10.0661 10.7365 10.0443 10.698 9.72134C10.6686 9.47655 10.7053 9.13436 10.6141 8.97394C10.5926 8.91405 10.5747 8.85519 10.5453 8.85988Z" fill="white"/>
<path d="M10.2525 8.88589C10.225 8.8885 10.1943 8.92496 10.1691 8.99579C10.1476 9.04944 10.1214 9.33069 10.126 9.33069C10.1091 9.41454 10.203 9.44996 10.2456 9.34214C10.3098 9.14527 10.3103 9.06089 10.3144 8.97756C10.3043 8.91402 10.28 8.88329 10.2525 8.88589ZM11.3342 8.90829C11.3058 8.91142 11.2833 8.93016 11.2746 8.97756C11.2631 9.08954 11.2691 9.15048 11.2856 9.24371C11.2984 9.30569 11.3782 9.40985 11.4171 9.47027C11.6046 9.75621 11.7847 10.0437 11.9589 10.3411C11.9864 10.5619 12.0061 10.7781 12.0194 10.9932C12.0478 11.4651 12.0561 12.052 12.0304 12.5489C12.1083 12.5526 12.233 12.4062 12.2765 12.1921C12.3049 11.8958 12.2664 11.2916 12.2637 11.1166C12.2618 11.0442 12.2577 10.9572 12.2536 10.8666C12.4562 11.2427 12.6523 11.6411 12.8453 12.0781C12.9154 12.0401 12.8998 11.5906 12.8591 11.527C12.7046 11.1494 12.4915 10.777 12.4236 10.6338C12.3989 10.5822 12.3155 10.4375 12.2165 10.2713C12.1981 10.0338 12.1784 9.83225 12.1656 9.77183C12.134 9.52079 12.2563 9.79996 12.2394 9.65412C12.1995 9.40308 12.0776 9.23277 11.9337 9.00308C11.8874 8.9286 11.8883 8.91298 11.8163 9.02131C11.7737 9.13173 11.7742 9.22339 11.7866 9.30985C11.7678 9.2786 11.7444 9.24162 11.7109 9.19579C11.5867 9.07444 11.5789 9.06819 11.4758 8.96923C11.4433 8.94371 11.3814 8.90308 11.3342 8.90829ZM14.5393 8.94579C14.5256 8.94319 14.5104 8.951 14.4935 8.97964C14.4609 9.01194 14.4261 9.07027 14.4275 9.14579C14.4353 9.27808 14.4559 9.4135 14.4641 9.54631C14.4669 9.56402 14.4696 9.58173 14.4728 9.59944C14.4605 9.58121 14.4495 9.56714 14.4431 9.55985C14.2162 9.28902 14.5476 9.51558 14.4 9.30621C14.2753 9.15048 14.2386 9.101 14.1318 9.00725C14.0782 8.96767 14.0457 8.89267 14.0283 9.02079C14.0214 9.13329 14.0141 9.2635 14.0205 9.35829C14.02 9.41089 14.0681 9.51037 14.1094 9.56871C14.2611 9.78017 14.4156 10.0052 14.5714 10.2401C14.6039 10.7192 14.6126 11.1583 14.6461 11.638C14.6415 11.8432 14.5861 12.1156 14.5333 12.1416C14.5333 12.1416 14.4531 12.1942 14.3991 12.1359C14.3601 12.1182 14.2038 11.8395 14.2038 11.8395C14.1241 11.7562 14.0704 11.7802 14.0136 11.8395C13.8568 12.0119 13.7858 12.3343 13.679 12.5562C13.6515 12.6057 13.5741 12.6479 13.4879 12.5526C13.2693 12.213 13.3971 11.7302 13.3701 11.8541C13.1753 12.1036 13.2615 12.5166 13.3055 12.6057C13.3696 12.7515 13.4214 12.8453 13.5466 12.9171C13.6602 13.0125 13.7491 12.9531 13.7977 12.8864C13.9123 12.7515 13.9137 12.4067 13.9673 12.3385C14.0049 12.213 14.0993 12.2349 14.1456 12.2901C14.1901 12.363 14.2428 12.4104 14.3088 12.45C14.4156 12.5572 14.543 12.5765 14.6686 12.4791C14.7543 12.4244 14.8102 12.3531 14.8606 12.213C14.9147 12.0489 14.8876 11.1901 14.8757 10.7119C14.9564 10.8411 15.0361 10.9729 15.115 11.1062C15.1498 11.526 15.1654 11.939 15.1539 12.3354C15.1457 12.414 15.3959 12.1 15.3941 11.9515C15.3932 11.8213 15.3941 11.7036 15.3941 11.5937C15.5156 11.814 15.6329 12.0375 15.7438 12.264C15.8126 12.2224 15.7892 11.7802 15.7456 11.7192C15.6292 11.4979 15.4807 11.2583 15.3652 11.0729C15.3423 10.839 15.3116 10.563 15.2974 10.4786C15.2754 10.3468 15.2534 10.1489 15.2199 9.99267C15.2108 9.93173 15.1833 9.73642 15.192 9.71767C15.2057 9.67392 15.2566 9.71923 15.2818 9.66871C15.3194 9.62183 15.1507 9.12548 15.0655 8.98381C15.0348 8.92027 14.9788 8.94214 14.9101 9.04579C14.8464 9.1135 14.8698 9.26871 14.8941 9.4161C14.9573 9.79214 15.0141 10.1744 15.0586 10.5562C14.9756 10.4161 14.8748 10.2468 14.7749 10.0838C14.7721 10.0682 14.7621 10.0104 14.7621 10.0093C14.7621 10.0026 14.7483 9.70204 14.7364 9.63017C14.7346 9.601 14.7281 9.59266 14.7552 9.59631C14.7836 9.62339 14.7877 9.62496 14.8051 9.63381C14.834 9.63954 14.8588 9.58485 14.8418 9.53329C14.7529 9.34683 14.664 9.15985 14.5751 8.97391C14.565 8.96089 14.5531 8.94787 14.5393 8.94579ZM6.26684 8.95517C6.2178 8.9536 6.16326 8.9885 6.18434 9.05569C6.17197 9.09214 6.28059 9.2161 6.29984 9.28433C6.3168 9.33277 6.28289 9.48902 6.31864 9.50308C6.35164 9.51923 6.39655 9.39527 6.41351 9.28017C6.42314 9.21714 6.4158 9.00204 6.28701 8.95777C6.28059 8.95673 6.27418 8.95569 6.26684 8.95517Z" fill="white"/>
<path d="M15.6905 8.95685C15.6795 8.95789 15.6658 8.97872 15.6447 9.02924C15.5943 9.12299 15.5769 9.2907 15.597 9.43914C15.7185 10.3714 15.8083 11.274 15.8271 12.1006C15.8166 12.1792 15.8138 12.2209 15.7813 12.3193C15.7098 12.4235 15.6305 12.5542 15.5562 12.6173C15.482 12.6803 15.3234 12.7402 15.2721 12.7871C15.108 12.8949 15.1071 13.0188 15.24 13.0235C15.4687 12.9933 15.7396 12.9719 15.9257 12.6522C15.9756 12.5626 16.0343 12.3193 16.037 12.1709C16.0545 11.299 16.0274 10.4464 15.9124 9.81622C15.905 9.75476 15.8812 9.61362 15.8904 9.59539C15.905 9.55216 15.9802 9.59955 16.0068 9.55008C16.0457 9.50476 15.8134 9.16622 15.7318 9.02143C15.7148 8.98497 15.7047 8.95528 15.6905 8.95685ZM13.2916 8.97091C13.282 8.97299 13.2682 8.98914 13.2426 9.02768C13.1789 9.26518 13.1564 9.45893 13.1807 9.60633C13.3448 10.5798 13.513 11.4667 13.4864 12.3933C13.5643 12.3938 13.6542 12.1907 13.6927 11.9902C13.7137 11.7136 13.6785 11.5449 13.6725 11.3824C13.6661 11.2199 13.5107 9.90007 13.4791 9.77716C13.441 9.54435 13.6303 9.74643 13.6097 9.61101C13.5442 9.44018 13.3805 9.19226 13.3297 9.04383C13.3095 9.00476 13.3072 8.96778 13.2916 8.97091ZM7.45062 8.98966C7.43045 8.99383 7.4112 9.01258 7.40387 9.04383C7.39928 9.06414 7.41166 9.09799 7.39516 9.10841C7.38599 9.11935 7.35024 9.11205 7.35208 9.05528C7.35208 9.03705 7.34062 9.0183 7.33329 9.00685C7.32641 9.00164 7.32137 9.00008 7.30854 9.00008C7.29295 9.0006 7.29341 9.00528 7.2847 9.02039C7.28104 9.03549 7.27599 9.05007 7.27599 9.06778C7.27416 9.0881 7.26683 9.09487 7.25399 9.09747C7.23933 9.09747 7.24299 9.09903 7.23108 9.0907C7.2242 9.08185 7.21595 9.07872 7.21595 9.06362C7.21595 9.04799 7.21229 9.02351 7.20816 9.01362C7.20174 9.00424 7.19212 8.99955 7.18112 8.99643C7.12016 8.99643 7.11558 9.07612 7.11924 9.10632C7.11466 9.11205 7.11237 9.2532 7.19579 9.29226C7.30762 9.35268 7.51708 9.32716 7.50837 9.12247C7.50837 9.10424 7.5047 9.0433 7.50333 9.02716C7.49141 8.99695 7.47033 8.98549 7.45062 8.98966ZM8.94937 8.99122C8.91087 8.9933 8.87649 9.0058 8.84762 9.02299C8.77337 9.10372 8.75641 9.23289 8.81462 9.3131C8.87145 9.3433 8.92783 9.40841 8.89024 9.44435C8.72983 9.63914 8.31183 9.96466 8.29074 10.024L8.28983 10.0261V10.0282V10.0292L8.29074 10.0313L8.29166 10.0324H8.29258L8.29349 10.0334H8.29441L8.29533 10.0345C8.31641 10.0506 8.57812 10.0501 8.60699 10.0355L8.60791 10.0345H8.60883V10.0334C8.69866 9.99591 9.12491 9.44226 9.12491 9.44226C9.10291 9.42091 9.08229 9.40476 9.06029 9.38341C9.03645 9.35997 9.0392 9.33705 9.06029 9.31414C9.1657 9.24435 9.13224 9.0907 9.07724 9.02091C9.03141 8.99695 8.98833 8.98914 8.94937 8.99122ZM12.8681 8.9933C12.8571 8.99435 12.8434 9.01414 12.8223 9.06466C12.7719 9.15841 12.7375 9.32195 12.7416 9.47455C12.8507 10.3329 12.8842 11.0844 12.9557 11.9433C12.9616 12.0261 12.9506 12.1469 12.902 12.1949C12.7224 12.4079 12.4634 12.6709 12.1815 12.7917C12.1513 12.8303 12.2572 12.9954 12.3937 12.9954C12.6225 12.9652 12.8237 12.8193 13.0102 12.435C13.0602 12.3454 13.1477 12.1537 13.1505 12.0048C13.1679 11.1329 13.112 10.4548 12.9969 9.82455C12.9896 9.7631 12.9946 9.6907 13.0038 9.67195C13.0185 9.65164 13.0689 9.67247 13.0955 9.62299C13.1344 9.57768 12.991 9.20164 12.9094 9.05685C12.8924 9.02039 12.8823 8.99174 12.8681 8.9933Z" fill="white"/>
<path d="M6.79763 9.01929C6.766 9.02346 6.73621 9.05263 6.722 9.09169C6.7165 9.22919 6.71604 9.36721 6.72979 9.49377C6.78479 9.71617 6.80221 9.912 6.82925 10.1401C6.83658 10.4453 6.67388 10.2724 6.68167 10.1209C6.71925 9.9245 6.70917 9.6146 6.67571 9.53648C6.64913 9.45783 6.61842 9.43856 6.55425 9.45158C6.50338 9.44794 6.37138 9.61148 6.33425 9.88179C6.33425 9.88179 6.30354 10.0203 6.29025 10.1443C6.27238 10.2839 6.19079 10.3828 6.13396 10.125C6.08492 9.93752 6.05467 9.47554 5.97263 9.58387C5.94925 9.94429 5.92129 10.5787 6.19079 10.6438C6.51713 10.6792 6.33654 10.0172 6.45479 9.8969C6.47725 9.83752 6.5185 9.83648 6.52171 9.91148V10.474C6.5185 10.6568 6.62438 10.711 6.70688 10.749C6.79258 10.7417 6.84896 10.7443 6.88242 10.8386C6.89571 11.1625 6.90992 11.4875 6.92321 11.812C6.92321 11.812 7.12075 11.8766 7.13038 11.2651C7.14 10.9063 7.06758 10.6047 7.11021 10.5349C7.11158 10.4662 7.18904 10.463 7.24267 10.4964C7.32792 10.5646 7.3655 10.649 7.49796 10.6151C7.69963 10.5521 7.82108 10.4406 7.82383 10.2651C7.81192 10.0979 7.79496 9.93075 7.73125 9.76356C7.73996 9.73335 7.69275 9.65419 7.70146 9.62346C7.73767 9.68804 7.79267 9.68283 7.80504 9.62346C7.77067 9.49481 7.7175 9.3719 7.63088 9.31877C7.55938 9.24742 7.45533 9.26252 7.41683 9.41148C7.39896 9.58283 7.47138 9.78648 7.58138 9.95263C7.60475 10.0177 7.63729 10.1255 7.62308 10.2229C7.56442 10.261 7.50667 10.2453 7.45763 10.1865C7.45763 10.1865 7.29721 10.05 7.29721 10.0198C7.33983 9.70992 7.30638 9.6745 7.283 9.58856C7.2665 9.46981 7.217 9.43231 7.17667 9.35106C7.13633 9.30263 7.08225 9.30263 7.05613 9.35106C6.98508 9.49065 7.01854 9.79065 7.06988 9.92502C7.107 10.0485 7.16383 10.1255 7.13679 10.1255C7.11479 10.1953 7.06896 10.1792 7.03596 10.0985C6.98875 9.93179 6.97913 9.68388 6.97913 9.5719C6.96492 9.43335 6.94933 9.137 6.86867 9.06148C6.84758 9.02763 6.82238 9.01617 6.79763 9.01929Z" fill="white"/>
<path d="M7.94281 9.02146C7.92677 9.02354 7.90889 9.03448 7.88781 9.03969C7.8186 9.06469 7.75352 9.13291 7.77414 9.26521C7.85619 9.83083 7.90935 10.2631 7.9914 10.8287C8.00377 10.8949 7.95519 10.9824 7.89194 10.9735C7.78469 10.8912 7.7581 10.7241 7.57523 10.7314C7.44277 10.7329 7.29198 10.897 7.27319 11.0543C7.25119 11.1798 7.24339 11.3152 7.27319 11.4246C7.36623 11.5517 7.4776 11.5381 7.57523 11.5095C7.65544 11.472 7.72189 11.3819 7.75031 11.4032H7.75123V11.4043C7.76865 11.4392 7.7494 11.7334 7.37265 11.961C7.14119 12.0793 6.95648 12.1074 6.85748 11.8923C6.79606 11.7579 6.86206 11.2465 6.71081 11.3647C6.26348 12.6756 7.75948 12.8584 7.92631 11.4189C7.93731 11.3782 7.97031 11.3376 7.99323 11.3475C8.00331 11.3522 8.01294 11.3683 8.01614 11.3975C7.98131 12.7011 6.85885 12.7907 6.66819 12.3803C6.62098 12.2834 6.60677 12.0683 6.60219 11.9397C6.59348 11.8616 6.57652 11.8168 6.55635 11.7991C6.51098 11.76 6.44956 11.8616 6.43673 12.0371C6.41794 12.1787 6.42298 12.2173 6.42298 12.3532C6.48302 13.3829 7.92769 12.9407 8.16235 12.0897C8.27877 11.6501 8.16006 11.3183 8.19902 11.2777L8.20085 11.2767L8.20269 11.2756L8.20452 11.2746C8.20589 11.2741 8.20819 11.2735 8.20956 11.2735C8.35302 11.4491 8.55423 11.2959 8.59823 11.235C8.61702 11.2048 8.66469 11.185 8.69769 11.2246C8.80952 11.3157 9.00569 11.273 9.04648 11.1116C9.07031 10.9537 9.09002 10.7918 9.09506 10.6235C9.02219 10.6491 8.96352 10.6683 8.93969 10.697C8.93419 10.7037 8.93006 10.7116 8.92869 10.7199C8.92227 10.7662 8.91631 10.8131 8.90989 10.86C8.90944 10.8636 8.90806 10.8673 8.90669 10.8704C8.90348 10.8761 8.89844 10.8814 8.89294 10.885C8.86727 10.9011 8.82235 10.8918 8.82006 10.8491C8.78523 10.6699 8.64269 10.6465 8.55606 10.9241C8.49785 10.9777 8.39152 10.9881 8.38052 10.9079C8.39473 10.7215 8.32873 10.6965 8.19627 10.7845C8.15364 10.4157 8.11148 10.0631 8.06885 9.69437C8.12385 9.69281 8.17473 9.73812 8.22514 9.66625C8.1706 9.47354 8.0551 9.08083 7.99002 9.04385L7.98819 9.04281C7.98544 9.03864 7.98177 9.035 7.97902 9.03239C7.97765 9.03135 7.97581 9.02927 7.97489 9.02875C7.97352 9.02771 7.97169 9.02666 7.97077 9.02562C7.96802 9.02406 7.96481 9.0225 7.96206 9.02198C7.95473 9.02146 7.94877 9.02093 7.94281 9.02146ZM12.407 9.02458C12.3497 9.0225 12.2864 9.06364 12.3112 9.14541C12.297 9.18969 12.434 9.34073 12.4565 9.42302C12.4964 9.54958 12.4262 9.67094 12.4675 9.68812C12.5055 9.70791 12.5587 9.55739 12.5789 9.41781C12.6018 9.30531 12.5312 9.07458 12.4313 9.02719C12.423 9.0251 12.4152 9.02458 12.407 9.02458ZM8.92914 9.16312C8.95527 9.16 8.9869 9.18708 9.00202 9.22562C9.01852 9.26677 9.01027 9.30583 8.98323 9.31364C8.95619 9.32094 8.92181 9.29385 8.90531 9.25271C8.88881 9.21156 8.89706 9.17146 8.9241 9.16416C8.92548 9.16364 8.92731 9.16364 8.92914 9.16312ZM15.3806 9.35323C15.3284 9.35114 15.2716 9.39593 15.294 9.48448C15.2807 9.53239 15.4054 9.69594 15.4256 9.78552C15.4439 9.84906 15.3981 10.0543 15.4356 10.073C15.4705 10.0944 15.5195 9.93135 15.5374 9.78083C15.5475 9.69854 15.4939 9.40896 15.4026 9.35739C15.3958 9.35479 15.388 9.35375 15.3806 9.35323ZM11.8134 9.45375C11.818 9.47771 11.8231 9.50219 11.8263 9.52719C11.8368 9.58083 11.846 9.63396 11.8561 9.68656C11.8148 9.62198 11.7809 9.56989 11.7662 9.55166C11.6727 9.4251 11.7681 9.46833 11.8134 9.45375ZM12.6352 9.9126C12.6151 9.91677 12.5958 9.93656 12.5885 9.96781C12.5839 9.98812 12.5972 10.0215 12.5807 10.0314C12.5715 10.0423 12.5349 10.036 12.5367 9.97927C12.5367 9.96104 12.5252 9.94125 12.5179 9.93031C12.511 9.9251 12.506 9.92354 12.4931 9.92354C12.4776 9.92406 12.478 9.92875 12.4693 9.94385C12.4656 9.95896 12.4606 9.97406 12.4606 9.99125C12.4588 10.0116 12.4524 10.0183 12.4395 10.0209C12.4249 10.0209 12.4276 10.0225 12.4157 10.0142C12.4088 10.0053 12.4006 10.0022 12.4006 9.98708C12.4006 9.97146 12.3969 9.94698 12.3928 9.93708C12.3864 9.92771 12.3767 9.92406 12.3657 9.92094C12.3048 9.92094 12.3011 10.0001 12.3048 10.0298C12.3002 10.0355 12.297 10.1777 12.3804 10.2168C12.4922 10.2772 12.7026 10.2506 12.6934 10.0459C12.6934 10.0277 12.6889 9.96677 12.6875 9.95062C12.6765 9.92041 12.6554 9.90896 12.6352 9.9126Z" fill="white"/>
<path d="M8.88347 9.95533C8.86972 9.95377 8.85185 9.95949 8.83076 9.97356C8.73176 10.0345 8.69372 10.2147 8.75514 10.3199C8.81243 10.4126 8.90364 10.3788 8.91555 10.3788C9.01226 10.3923 9.07001 10.1725 9.07001 10.1725C9.07001 10.1725 9.07276 10.1105 8.95818 10.2277C8.9096 10.2381 8.90318 10.2183 8.89126 10.1871C8.88118 10.1298 8.88347 10.072 8.90639 10.0142C8.91739 9.97981 8.90639 9.95793 8.88347 9.95533ZM14.1873 9.98345C14.1323 9.98033 14.0741 10.021 14.059 10.1058C14.059 10.1558 14.0791 10.1835 14.075 10.2293C14.0695 10.2553 14.0457 10.2725 13.9893 10.2418C13.998 10.2324 13.9526 10.16 13.9526 10.16C13.9086 10.1298 13.85 10.1616 13.8119 10.1897C13.7908 10.2329 13.7753 10.3074 13.7991 10.3835C13.8623 10.5157 14.0787 10.7423 14.1818 10.7444C14.1836 10.6251 14.1937 10.4663 14.1997 10.3673C14.202 10.3298 14.2098 10.2887 14.2414 10.2793C14.273 10.2699 14.3276 10.3152 14.328 10.2762C14.3225 10.2001 14.3088 10.0881 14.2712 10.035C14.2519 10.0027 14.2203 9.98501 14.1873 9.98345ZM9.79693 10.3991C9.79555 10.3996 9.79418 10.4012 9.7928 10.4022C9.7928 10.4022 9.79097 10.4038 9.79005 10.4043C9.77905 10.4137 9.76622 10.435 9.73735 10.4585C9.68876 10.5215 9.68005 10.5652 9.6828 10.6907C9.68555 10.7043 9.77493 10.9866 9.85101 11.1855C9.90235 11.3923 9.94955 11.6288 9.91472 11.8522C9.7951 12.1475 9.55447 12.4126 9.3221 12.5564C9.20385 12.5996 9.10164 12.585 9.07414 12.5553L9.07322 12.5543C9.00539 12.5022 9.00355 12.41 9.00768 12.3944V12.3933L9.0086 12.3923C9.20476 12.2371 9.42843 12.1116 9.60351 11.6928C9.6553 11.5329 9.67089 11.4366 9.61955 11.1892C9.59939 11.097 9.57464 11.021 9.51918 10.9558L9.5201 10.9548C9.55355 10.9366 9.64018 11.009 9.65347 10.9637C9.63285 10.8454 9.56272 10.6871 9.48297 10.6058C9.4133 10.534 9.33722 10.5256 9.27351 10.5913C9.20155 10.6366 9.18643 10.8001 9.2208 10.9433C9.2593 11.0512 9.36335 11.0699 9.43714 11.2866V11.2876C9.43851 11.3012 9.46235 11.4496 9.42522 11.5095C9.39497 11.6168 9.0063 11.9652 8.9788 11.9861L8.97605 11.9881L8.97514 11.9892L8.97422 11.9902L8.9733 11.9913H8.97239H8.97147L8.97055 11.9902V11.9892L8.96964 11.9871C8.96826 11.9782 8.97055 11.9564 8.96964 11.9204C8.96689 11.8553 8.99072 11.7074 8.98935 11.6824V11.6814L8.98843 11.6803V11.6793H8.98751C8.85918 11.7736 8.81655 12.0626 8.79318 12.148C8.46776 12.4032 8.09835 12.5933 7.88568 12.8522C7.77476 13.0491 8.64926 12.6262 8.75055 12.5751C8.75147 12.5756 8.75239 12.5772 8.7533 12.5782C8.77255 12.6022 8.77439 12.6866 8.83214 12.7626C8.92289 12.9027 9.1163 12.9887 9.30422 12.9355C9.61955 12.8058 9.80105 12.5621 9.98576 12.2913C10.0123 12.2475 10.0536 12.2131 10.0921 12.247C10.2191 12.5704 10.5853 12.8001 11.0592 12.8241C11.1687 12.6725 11.1165 12.598 11.072 12.5663C11.0583 12.5558 10.8364 12.4574 10.8021 12.36C10.7805 12.2689 10.8332 12.1881 10.9386 12.1277C11.2425 12.0861 11.5413 12.0397 11.831 11.934C11.8338 11.8236 11.8911 11.6585 11.9296 11.5866C11.9561 11.5366 11.9731 11.5319 11.9795 11.5246L11.9804 11.5236L11.9813 11.5225L11.9823 11.5215V11.5194C11.9823 11.5173 11.9823 11.5137 11.9813 11.5095L11.9323 11.4767L10.962 11.472C10.9501 11.4668 10.9409 11.4616 10.9359 11.4564L10.9341 11.4543L10.9331 11.4532L10.9322 11.4522L10.9313 11.4501L10.9304 11.4491V11.448L10.9295 11.447V11.446V11.4449V11.4439V11.4428V11.4418V11.4407V11.4397V11.4387L10.9304 11.4376L10.9313 11.4355C10.9359 11.4282 10.9473 11.4215 10.962 11.4152C11.1939 11.3793 11.6055 11.3027 11.6326 10.8527C11.6284 10.6183 11.5441 10.4652 11.2911 10.4225C11.105 10.4387 10.9726 10.6433 10.9941 10.8683C10.9854 10.9288 11.012 11.048 10.9574 11.0611C10.6008 11.098 10.2117 11.3522 10.1984 11.534H10.1975L10.1966 11.535L10.1948 11.5361H10.1929C10.1929 11.5361 10.1911 11.5371 10.1902 11.5371H10.1893H10.1874H10.1865H10.1847C10.1838 11.5371 10.1815 11.5361 10.1815 11.5361C10.1581 11.5288 10.1283 11.485 10.1329 11.4241C10.1191 11.11 10.0293 10.7543 9.8886 10.4808C9.83818 10.4236 9.81618 10.4006 9.80197 10.398H9.80014C9.80014 10.398 9.7983 10.398 9.79739 10.398H9.79647H9.79555C9.79785 10.3991 9.79693 10.3991 9.79693 10.3991Z" fill="white"/>
<path d="M10.7259 10.5646C10.7058 10.5688 10.6865 10.5875 10.6792 10.6188C10.6746 10.6391 10.6879 10.673 10.6714 10.6834C10.6622 10.6943 10.6256 10.6881 10.6274 10.6313C10.6274 10.6131 10.6159 10.5933 10.6086 10.5823C10.6017 10.5771 10.5976 10.5756 10.5848 10.5756C10.5692 10.5761 10.5687 10.5808 10.56 10.5959C10.5563 10.611 10.5513 10.6261 10.5513 10.6433C10.5495 10.6636 10.5431 10.6703 10.5302 10.673C10.5156 10.673 10.5192 10.6745 10.5073 10.6662C10.5004 10.6573 10.4913 10.6542 10.4913 10.6391C10.4913 10.6235 10.4885 10.599 10.4844 10.5891C10.4784 10.5797 10.4674 10.5761 10.4564 10.573C10.3955 10.573 10.3918 10.6521 10.3955 10.6818C10.3909 10.6875 10.3877 10.8297 10.4711 10.8688C10.5829 10.9292 10.8492 10.8938 10.7841 10.698C10.7841 10.6797 10.78 10.6188 10.7782 10.6026C10.7667 10.5724 10.7461 10.561 10.7259 10.5646ZM14.4737 10.7396C14.471 10.7391 14.4678 10.7391 14.4646 10.7407C14.4646 10.7407 13.9466 11.1594 13.9338 11.174C13.8825 11.2261 13.9081 11.4084 13.9338 11.387C13.9709 11.4032 14.4921 11.0016 14.482 10.9547C14.5049 10.9563 14.5159 10.748 14.4737 10.7396ZM11.215 10.8016C11.2361 10.799 11.264 10.8073 11.2906 10.8245C11.3291 10.85 11.3529 10.8881 11.3502 10.9162C11.3502 10.9162 11.3502 10.9183 11.3502 10.9193C11.3502 10.9193 11.3488 10.9214 11.3483 10.9224C11.3483 10.9224 11.3479 10.9245 11.3474 10.9256L11.3465 10.9276L11.3456 10.9297C11.3442 10.9323 11.3424 10.9344 11.3406 10.9365C11.3218 10.9563 11.2791 10.9532 11.2388 10.9266C11.2003 10.9016 11.1769 10.8625 11.1792 10.8349C11.1792 10.8349 11.1801 10.8328 11.1801 10.8318C11.1806 10.8282 11.182 10.825 11.1833 10.8219C11.1838 10.8209 11.1843 10.8193 11.1852 10.8183L11.1861 10.8172C11.187 10.8157 11.1888 10.8136 11.1902 10.8125C11.1966 10.8068 11.2053 10.8026 11.215 10.8016ZM6.68114 10.9078C6.41301 10.9136 6.02022 11.3073 6.00968 11.5261C6.29293 11.3714 6.57068 11.223 6.85851 11.0631C6.81176 10.9839 6.85576 10.9131 6.68114 10.9078ZM7.55014 11.0448C7.57626 11.0453 7.60422 11.0599 7.61889 11.1016C7.63218 11.1401 7.61935 11.1802 7.60376 11.2V11.2011L7.60285 11.2032C7.59139 11.2198 7.55197 11.2131 7.52401 11.2131C7.4901 11.2115 7.47314 11.2052 7.45251 11.1735C7.44289 11.1386 7.47268 11.1042 7.48551 11.0782L7.48643 11.0771C7.4878 11.0745 7.4901 11.0719 7.49239 11.0693C7.50247 11.0589 7.52035 11.049 7.53914 11.0464C7.5428 11.0448 7.54647 11.0443 7.55014 11.0448ZM14.3729 11.1657C14.3252 11.1724 14.2798 11.2235 14.3009 11.3058C14.2876 11.3537 14.3656 11.5224 14.3857 11.6115C14.4041 11.675 14.3623 11.8547 14.3999 11.874C14.4348 11.8953 14.5264 11.7672 14.5232 11.6068C14.5333 11.5245 14.4976 11.2203 14.4059 11.1688C14.3953 11.1657 14.3839 11.1641 14.3729 11.1657ZM8.6538 11.2485C8.6121 11.2516 8.57497 11.2771 8.59147 11.3438C8.58918 11.3922 8.70926 11.4511 8.7166 11.5636C8.73401 11.6099 8.69093 11.7578 8.72668 11.7719C8.75968 11.7875 8.80505 11.6693 8.82247 11.5599C8.8321 11.5 8.78122 11.2901 8.6946 11.2526C8.68176 11.249 8.66801 11.2474 8.6538 11.2485ZM10.3707 11.5151C10.3739 11.5151 10.3767 11.5151 10.3799 11.5151C10.3799 11.5151 10.3808 11.5151 10.3817 11.5151C10.4885 11.548 10.6466 11.5516 10.7832 11.5677C10.8946 11.5756 10.9501 11.675 10.8456 11.7167C10.7424 11.7568 10.6434 11.7881 10.643 11.9573C10.6567 12.0412 10.6535 12.0849 10.6421 12.1052C10.6411 12.1068 10.6398 12.1089 10.6388 12.1099L10.6379 12.111L10.637 12.112L10.6361 12.1131L10.6352 12.1141L10.6333 12.1151C10.632 12.1162 10.6301 12.1172 10.6283 12.1177C10.6269 12.1183 10.6246 12.1183 10.6233 12.1188C10.599 12.123 10.5632 12.0964 10.5366 12.0808C10.4729 12.0287 10.2946 11.9032 10.2694 11.6339C10.2662 11.5724 10.3066 11.5198 10.3707 11.5151ZM6.17789 11.7219C6.17101 11.7219 6.15772 11.7448 6.1403 11.7709C5.98218 12.0568 5.96843 12.4839 6.05551 12.611C6.1018 12.6714 6.17835 12.6974 6.23426 12.6787C6.33372 12.6297 6.37726 12.4011 6.35343 12.3177C6.32043 12.2589 6.29385 12.2495 6.26085 12.2995C6.19118 12.4605 6.16185 12.3506 6.15589 12.2605C6.14535 12.0896 6.15955 11.9323 6.17605 11.8078C6.18476 11.7443 6.1843 11.7219 6.17789 11.7219ZM11.5596 12.0974C11.5477 12.0969 11.5353 12.099 11.5225 12.1063C11.5202 12.1063 11.4093 12.1912 11.374 12.2506C11.3525 12.2693 11.3548 12.2855 11.3616 12.3183C11.3786 12.3625 11.4084 12.3485 11.4423 12.3276C11.4872 12.3209 11.5092 12.3542 11.5056 12.4157C11.4849 12.4922 11.5147 12.5209 11.5147 12.5256C11.5147 12.5302 11.5578 12.5724 11.6087 12.5391C11.7159 12.4927 11.7828 12.4474 11.9332 12.4099C11.9726 12.4089 11.9703 12.2891 11.908 12.2849C11.8264 12.2896 11.7517 12.2943 11.6701 12.3672C11.6201 12.3802 11.6114 12.3459 11.6004 12.3146C11.5876 12.2375 11.6288 12.1834 11.6206 12.1256C11.6224 12.1276 11.5949 12.1 11.5596 12.0974ZM15.0058 12.2438C14.9857 12.2443 14.9651 12.2474 14.9343 12.2506C14.9013 12.2584 14.8899 12.275 14.8839 12.3203C14.8862 12.3891 14.9233 12.386 14.9614 12.4131C14.9834 12.4448 14.9976 12.4735 14.9596 12.5256C14.9238 12.5631 14.8981 12.5834 14.8619 12.6209C14.845 12.6537 14.8344 12.7042 14.8862 12.7203C14.982 12.7511 15.2038 12.587 15.2038 12.5839C15.2396 12.5532 15.2277 12.4953 15.2249 12.4953C15.2038 12.4683 15.1566 12.4844 15.125 12.4802C15.1099 12.4802 15.0604 12.4719 15.0838 12.4219C15.1035 12.3907 15.1108 12.3724 15.1241 12.3339C15.1392 12.2964 15.1259 12.2714 15.0718 12.2506C15.0448 12.2448 15.0256 12.2433 15.0058 12.2438ZM13.8825 15.3933L13.8816 15.3943C13.7221 15.4407 13.7271 15.6287 13.8293 15.7115C12.1463 15.7115 9.5636 15.6792 9.00947 15.6792C8.69964 15.6792 7.71926 15.637 7.70047 15.637C7.91085 15.9865 8.21518 16.0578 8.61393 16.0646C9.36147 16.0646 12.8251 16.0542 13.811 16.0542C13.7408 16.1953 13.8174 16.423 13.8724 16.4646C13.8738 16.4657 13.8756 16.4667 13.8765 16.4672C13.8783 16.4683 13.8811 16.4693 13.8834 16.4698H13.8857C13.9508 16.4875 13.9796 16.4339 14.0016 16.3943C14.1075 16.4047 14.7033 16.4146 14.7579 16.3933L14.7588 16.3922C14.7955 16.4537 14.8321 16.512 14.9027 16.5021C15.0256 16.4724 15.1223 16.4568 15.1255 16.1735C15.1255 16.1735 15.1131 15.6907 14.834 15.7209C14.768 15.7323 14.5828 15.7532 14.5828 15.7532C14.3683 15.724 14.2111 15.7214 13.9705 15.711C13.9929 15.6787 14.0319 15.549 13.9838 15.5016C13.9714 15.4896 13.9526 15.4834 13.9265 15.4855H13.9256H13.9237L13.9228 15.4844C13.9219 15.4839 13.9205 15.4834 13.9205 15.4834C13.9191 15.4823 13.9173 15.4802 13.9164 15.4787L13.9146 15.4766C13.9022 15.4563 13.8958 15.4068 13.8875 15.3943L13.8866 15.3933L13.8857 15.3922L13.8838 15.3912H13.8829C13.8829 15.3933 13.8825 15.3933 13.8825 15.3933Z" fill="white"/>
<path d="M13.6803 16.2463H13.6812C13.9269 16.2599 14.1574 16.2489 14.4031 16.2625C14.4421 16.3 14.4224 16.3864 14.3972 16.4021C14.3962 16.4026 14.3939 16.4036 14.393 16.4042C14.3921 16.4042 14.3907 16.4042 14.3898 16.4042C14.3889 16.4042 14.3875 16.4042 14.3866 16.4042C14.3069 16.4021 14.2606 16.4 14.1808 16.3974C14.1808 16.3927 14.1804 16.388 14.179 16.3838C14.1602 16.3203 14.0232 16.3245 13.9906 16.3745L13.9888 16.3771C13.9883 16.3781 13.9874 16.3797 13.9869 16.3807C13.9865 16.3818 13.9856 16.3844 13.9851 16.3854C13.9847 16.3875 13.9847 16.3901 13.9842 16.3922C13.9842 16.3943 13.9833 16.3974 13.9833 16.4C13.8756 16.4146 13.7784 16.3958 13.6707 16.3911C13.6395 16.3469 13.6432 16.2656 13.6803 16.2463Z" fill="white"/>
<path d="M40 10.5L36 14.5L32 10.5" stroke="#151515" stroke-linecap="round" stroke-linejoin="round"/>
</svg>
