<svg width="24" height="24" viewBox="0 0 24 24" fill="none" xmlns="http://www.w3.org/2000/svg">
<g clip-path="url(#clip0_0_31)">
<path d="M23.0938 9.91356L13.3044 9.91309C12.8721 9.91309 12.5217 10.2634 12.5217 10.6957V13.823C12.5217 14.2552 12.8721 14.6056 13.3044 14.6056H18.8172C18.2135 16.1722 17.0868 17.4842 15.6493 18.3178L18 22.387C21.7707 20.2063 24 16.3799 24 12.0965C24 11.4866 23.955 11.0507 23.8651 10.5597C23.7968 10.1867 23.473 9.91356 23.0938 9.91356Z" fill="#167EE6"/>
<path d="M11.9993 19.3044C9.30144 19.3044 6.94624 17.8304 5.68132 15.6491L1.61228 17.9945C3.68299 21.5833 7.56209 24.0001 11.9993 24.0001C14.176 24.0001 16.23 23.414 17.9993 22.3926V22.387L15.6487 18.3178C14.5734 18.9414 13.3292 19.3044 11.9993 19.3044Z" fill="#12B347"/>
<path d="M18.0008 22.3926V22.387L15.6501 18.3177C14.5749 18.9413 13.3307 19.3043 12.0007 19.3043V24C14.1775 24 16.2315 23.4139 18.0008 22.3926Z" fill="#0F993E"/>
<path d="M4.69641 11.9999C4.69641 10.6701 5.05932 9.42598 5.6828 8.3508L1.61376 6.00545C0.586776 7.76922 0.000743556 9.81757 0.000743556 11.9999C0.000743556 14.1822 0.586776 16.2306 1.61376 17.9943L5.6828 15.649C5.05932 14.5738 4.69641 13.3297 4.69641 11.9999Z" fill="#FFD500"/>
<path d="M11.9993 4.69567C13.7586 4.69567 15.3745 5.32079 16.6367 6.36063C16.9481 6.61713 17.4007 6.59861 17.6859 6.31338L19.9017 4.09759C20.2254 3.77396 20.2023 3.24423 19.8566 2.94432C17.7418 1.10967 14.9902 0 11.9993 0C7.56209 0 3.68299 2.41674 1.61228 6.00559L5.68132 8.35094C6.94624 6.1697 9.30144 4.69567 11.9993 4.69567Z" fill="#FE724C"/>
<path d="M16.6382 6.36063C16.9496 6.61713 17.4022 6.59861 17.6874 6.31338L19.9032 4.09759C20.2268 3.77396 20.2037 3.24423 19.8581 2.94432C17.7433 1.10963 14.9917 0 12.0007 0V4.69567C13.76 4.69567 15.376 5.32079 16.6382 6.36063Z" fill="#D93F21"/>
</g>
<defs>
<clipPath id="clip0_0_31">
<rect width="23.6407" height="23.6407" fill="white" transform="scale(1.0152)"/>
</clipPath>
</defs>
</svg>
