<svg width="24" height="24" viewBox="0 0 24 24" fill="none" xmlns="http://www.w3.org/2000/svg">
<path d="M11.6777 2.59295C11.2556 2.63158 10.8798 2.93922 10.7793 3.38397L10.2246 5.82928L7.51367 8.841C7.18267 9.208 7 9.68489 7 10.1789V19.4113C7 20.5163 7.895 21.4113 9 21.4113H17.0312C17.7723 21.4113 18.4431 20.975 18.7441 20.298L21.7461 13.5422C21.9131 13.1682 22 12.7627 22 12.3527V11.4113C22 10.3113 21.1 9.41131 20 9.41131H13C13 9.41131 14 7.0406 14 5.2746C14 3.6616 12.9624 2.95564 12.1074 2.64764C11.9647 2.59589 11.8184 2.58008 11.6777 2.59295ZM3.5 9.41131C2.672 9.41131 2 10.0833 2 10.9113V19.9113C2 20.7393 2.672 21.4113 3.5 21.4113C4.328 21.4113 5 20.7393 5 19.9113V10.9113C5 10.0833 4.328 9.41131 3.5 9.41131Z" fill="white"/>
</svg>
