<svg width="24" height="24" viewBox="0 0 24 24" fill="none" xmlns="http://www.w3.org/2000/svg">
<path d="M21.8423 18.9092C21.7532 19.7956 21.5207 20.6412 21.1694 21.4199L13.7358 23C13.8248 22.1136 14.0574 21.2681 14.4087 20.4893L21.8423 18.9092ZM11.4194 11.6562L13.7358 11.1641V4.10156C14.3763 3.31944 15.1641 2.65634 16.0513 2.1582V10.6719L21.8413 9.44141C21.7524 10.3278 21.5207 11.1735 21.1694 11.9521L16.0513 13.0391V15.4072L21.8413 14.1758C21.7523 15.0619 21.5206 15.9071 21.1694 16.6855L13.7358 18.2666V13.5312L11.4194 14.0234V16.6504C11.4194 16.8899 11.3469 17.1123 11.2222 17.2969L10.0171 19.083C9.71836 19.518 9.25872 19.8341 8.72412 19.9453L2.15771 21.3408C2.24667 20.4547 2.47849 19.6095 2.82959 18.8311L9.104 17.4971V14.5156L3.24951 15.7598C3.33865 14.8736 3.57122 14.0285 3.92236 13.25L9.104 12.1484V2.94336C9.74448 2.16127 10.5323 1.49796 11.4194 1V11.6562Z" fill="white"/>
</svg>
