<svg width="24" height="24" viewBox="0 0 24 24" fill="none" xmlns="http://www.w3.org/2000/svg">
<path d="M21.5409 9.8435L16.3419 5.0545C15.6037 4.3745 14.6325 4 13.6068 4H4.91037C3.02994 4 1.5 5.458 1.5 7.25V16.75C1.5 18.542 3.02994 20 4.91037 20H13.6063C14.632 20 15.6037 19.6255 16.3414 18.946L21.5404 14.157C22.1595 13.5865 22.5 12.821 22.5 12.0005C22.5 11.18 22.1595 10.4135 21.5409 9.8435ZM16.7223 13C16.1425 13 15.673 12.5525 15.673 12C15.673 11.4475 16.1425 11 16.7223 11C17.3021 11 17.7717 11.4475 17.7717 12C17.7717 12.5525 17.3021 13 16.7223 13Z" fill="white"/>
</svg>
